<svg width="289" height="83" viewBox="0 0 289 83" fill="none" xmlns="http://www.w3.org/2000/svg">
<g filter="url(#filter0_d)">
<path d="M41.1609 0L67.4377 10.8842L78.3219 37.1609L67.4377 63.4377L41.1609 74.3219L14.8842 63.4377L4 37.1609L14.8842 10.8842L41.1609 0Z" fill="#431C94"/>
</g>
<path d="M25.482 45.0917C24.0864 45.297 22.833 44.3349 21.9594 43.2694L19.2635 39.9267C18.4087 38.7887 17.3445 37.742 16.7823 36.5074C16.22 35.2796 16.6534 33.723 17.6934 32.8936C17.9417 32.6749 18.257 32.5716 18.5952 32.2723C18.8985 31.9744 19.0609 31.592 19.1669 31.2337C19.3816 30.5144 19.4312 29.7925 19.7493 29.2248C20.3934 28.0574 21.8588 27.5125 23.194 27.5743C24.5533 27.6387 25.8335 28.3405 26.9487 29.1738C28.0705 30.0233 29.1293 31.0056 30.2203 31.9328L31.8494 33.3418C32.4049 33.8048 33.0182 34.2879 33.8099 34.4744C34.6272 34.6878 35.439 34.3228 36.0536 34.041C36.687 33.7431 37.3177 33.6411 37.99 33.7404C39.3333 33.9269 40.5732 34.6999 41.9567 35.1924C43.3416 35.6795 44.7788 35.9452 46.2039 36.1398C49.0461 36.5289 51.9407 36.6953 54.5279 37.8547C55.8134 38.4237 56.9635 39.2745 57.8277 40.3802C58.6959 41.4712 59.2367 42.8547 59.1615 44.2638C59.1575 44.3241 59.2031 44.3765 59.2649 44.3805C59.3239 44.3845 59.3749 44.3389 59.3803 44.2812C59.5104 42.8118 58.9911 41.3343 58.1202 40.1602C57.2667 38.9591 56.0375 38.056 54.7144 37.4468C52.0386 36.2095 49.0864 36.0123 46.2818 35.5896C44.8727 35.3789 43.4785 35.1011 42.1607 34.6194C40.851 34.1537 39.5896 33.3673 38.0652 33.1486C37.3164 33.0292 36.4763 33.1795 35.8161 33.5029C35.1519 33.8075 34.5507 34.0705 33.9334 33.9122C33.3134 33.7739 32.7458 33.3553 32.2104 32.9084L30.5799 31.5115C29.4822 30.5882 28.4328 29.6207 27.2654 28.7431C26.1019 27.8869 24.7466 27.1274 23.2114 27.0576C21.734 27.0013 20.0888 27.5863 19.3078 28.9887C18.9293 29.6918 18.8931 30.4473 18.6945 31.0955C18.6019 31.4216 18.465 31.7181 18.2544 31.9275C18.0611 32.114 17.684 32.271 17.3875 32.5233C16.1865 33.4908 15.7087 35.2715 16.3555 36.6873C16.6534 37.3877 17.1191 37.9715 17.574 38.5257L18.9454 40.183L21.6991 43.4935C22.6089 44.567 23.9642 45.6137 25.5236 45.3641C25.5987 45.3521 25.6497 45.2823 25.6376 45.2071C25.6309 45.1306 25.5571 45.081 25.482 45.0917Z" fill="white"/>
<path d="M22.0386 33.3727C22.464 33.5686 22.8061 33.9175 22.99 34.3295C23.1765 34.7455 23.1604 35.2165 23.0088 35.6365C22.8491 36.0646 22.5337 36.4001 22.1057 36.6041C21.7017 36.7919 21.114 37.165 21.2106 37.7769C21.2173 37.8239 21.2616 37.8561 21.3099 37.8494C21.3542 37.8427 21.3851 37.8024 21.3824 37.7581L21.381 37.7474C21.3515 37.3019 21.8051 37.0335 22.2278 36.8362C22.6854 36.6363 23.1 36.231 23.2852 35.7439C23.7281 34.7549 23.0772 33.5002 22.0788 33.2573C22.0466 33.2492 22.0131 33.2694 22.005 33.3016C21.9983 33.3311 22.0131 33.3606 22.0386 33.3727Z" fill="white"/>
<path d="M23.1013 35.4178C23.5777 36.2015 23.4019 37.2509 23.9427 38.1191C24.4527 38.939 25.1625 39.6287 25.9731 40.1481C26.381 40.4044 26.7983 40.6406 27.2546 40.8163C27.7041 40.9895 28.1591 41.1183 28.5549 41.3357C29.3722 41.7262 29.7358 42.7729 29.3802 43.5753C29.3453 43.6532 29.3815 43.7458 29.4594 43.7806C29.5372 43.8155 29.6298 43.7793 29.6647 43.7015L29.666 43.6988C30.0847 42.7393 29.6191 41.5249 28.6891 41.0914C28.2503 40.8566 27.7833 40.7345 27.3485 40.5694C26.9178 40.4097 26.5031 40.1816 26.1073 39.9387C25.3169 39.4449 24.6285 38.79 24.1279 38.0023C23.6207 37.2388 23.783 36.1881 23.2597 35.3198C23.2329 35.2755 23.1752 35.2608 23.1309 35.2876C23.0866 35.3145 23.0718 35.3722 23.0987 35.4164L23.1013 35.4178Z" fill="white"/>
<path d="M30.1948 31.2753C29.6687 30.8445 28.9629 31.0673 28.5871 31.4229C28.1886 31.7745 27.9202 32.2415 27.794 32.742C27.5203 33.7511 27.9497 34.8676 28.771 35.4581C28.8193 35.4929 28.8877 35.4822 28.9226 35.4339C28.9562 35.3869 28.9468 35.3212 28.9025 35.2849C28.1752 34.7106 27.8464 33.6934 28.1242 32.8306C28.2516 32.4012 28.5066 32.0053 28.8475 31.7315C29.1682 31.4511 29.6392 31.3893 29.8875 31.6242C29.9814 31.7127 30.129 31.7087 30.2176 31.6161C30.3061 31.5222 30.3021 31.3746 30.2095 31.286C30.2042 31.2833 30.1988 31.2793 30.1948 31.2753Z" fill="white"/>
<path d="M28.9079 41.4524C30.0794 42.0617 31.4025 42.3126 32.7042 42.3877C34.0112 42.4723 35.3156 42.3783 36.6025 42.2388C37.2386 42.161 37.9082 42.1489 38.5496 41.8711C39.2072 41.6094 39.6419 40.9157 39.6782 40.2366C39.7412 39.5523 39.4984 38.8706 39.1092 38.3392C38.7254 37.7957 38.2423 37.3528 37.7659 36.9167C37.7404 36.8926 37.7002 36.8939 37.676 36.9194C37.6532 36.9449 37.6546 36.9838 37.6787 37.008C38.5738 37.8869 39.5561 38.9377 39.4165 40.2111C39.3628 40.8231 38.9992 41.3773 38.4302 41.5947C37.8693 41.8282 37.2157 41.8389 36.573 41.9006C34.022 42.0992 31.3744 42.2871 29.0045 41.2511C28.9482 41.227 28.8824 41.2525 28.8583 41.3088C28.8328 41.3625 28.8569 41.4256 28.9079 41.4524Z" fill="white"/>
<path d="M48.1376 39.9857C48.1752 40.862 47.6532 41.6913 46.954 42.2012C46.2361 42.7125 45.3222 42.9124 44.4218 42.9352C42.5968 43.0171 40.7704 42.4454 39.2339 41.439C39.1561 41.388 39.0528 41.4095 39.0018 41.486C38.9535 41.5598 38.9709 41.6577 39.0394 41.7114C40.5584 42.891 42.5096 43.4787 44.4419 43.4398C45.4054 43.3955 46.4092 43.1647 47.2211 42.5622C48.0209 41.9717 48.5845 40.9841 48.4731 39.9575C48.4637 39.8649 48.3805 39.7992 48.2879 39.8086C48.198 39.8193 48.1336 39.8985 48.1376 39.9857Z" fill="white"/>
<path d="M19.4138 40.183C18.5133 40.0984 17.5968 40.2917 16.8118 40.7264C16.4213 40.9425 16.0509 41.2136 15.7624 41.5745C15.4739 41.9248 15.278 42.4146 15.3692 42.895C15.5812 43.8464 16.3636 44.3738 16.4964 45.2112C16.6843 46.015 16.5219 46.91 16.0254 47.581C15.9972 47.6199 16.0053 47.6736 16.0429 47.7018C16.0804 47.73 16.1341 47.7219 16.1636 47.6857C16.7098 46.9812 16.907 46.0338 16.7259 45.1602C16.5863 44.245 15.7865 43.6156 15.6631 42.848C15.5504 42.059 16.2737 41.4055 16.9822 41.0445C17.7122 40.662 18.5576 40.5091 19.3668 40.6043C19.4835 40.6191 19.5882 40.5359 19.603 40.4205C19.6177 40.3037 19.5345 40.1991 19.4191 40.1843C19.4191 40.183 19.4151 40.183 19.4138 40.183Z" fill="white"/>
<path d="M15.5611 42.6279C15.0767 42.4012 14.5037 42.4106 14.0353 42.644C13.567 42.8789 13.2248 43.3271 13.1188 43.829C13.1108 43.8692 13.1363 43.9081 13.1752 43.9162C13.2141 43.9242 13.2517 43.9001 13.2611 43.8625C13.3765 43.4103 13.7079 43.0211 14.1239 42.8373C14.5399 42.6521 15.0418 42.6709 15.435 42.8789C15.5034 42.9151 15.5866 42.8883 15.6228 42.8212C15.6591 42.7527 15.6322 42.6695 15.5651 42.6333C15.5651 42.6306 15.5625 42.6293 15.5611 42.6279Z" fill="white"/>
<path d="M66.7501 40.8204C67.2949 40.5976 67.5163 39.9575 67.4291 39.4302C67.358 38.8692 66.934 38.4251 66.4844 38.1647C65.5491 37.6534 64.5051 37.53 63.4812 37.5193C61.428 37.5354 59.3575 38.319 57.8572 39.7898C57.7351 39.9106 57.7324 40.1065 57.8532 40.2299C57.9739 40.3534 58.1699 40.3547 58.2933 40.234C58.296 40.2313 58.3 40.2273 58.3014 40.2259C59.6245 38.8357 61.5461 38.0198 63.4906 37.9433C64.4527 37.9165 65.4793 38.0171 66.3234 38.4465C66.734 38.6706 67.0856 39.0222 67.1581 39.4744C67.2453 39.9159 67.0762 40.4326 66.6602 40.6151C66.6038 40.6406 66.5783 40.7063 66.6025 40.7627C66.628 40.8177 66.6951 40.8432 66.7501 40.8204Z" fill="white"/>
<path d="M66.0536 26.749C65.8886 27.9057 66.3864 29.0168 66.9554 29.9696C67.5338 30.9331 68.2182 31.8348 68.5644 32.8802C68.9227 33.9135 68.7952 35.0836 68.2463 36.0149C67.6908 36.9382 66.785 37.6964 65.7115 37.8077C65.6189 37.8171 65.5518 37.9003 65.5625 37.9916C65.5732 38.0828 65.6551 38.1513 65.7463 38.1405C65.7477 38.1405 65.7544 38.1392 65.7557 38.1392C66.95 37.9929 67.9229 37.1421 68.4933 36.1558C69.0703 35.1467 69.1817 33.8893 68.7885 32.8051C68.4074 31.7154 67.6988 30.8163 67.1151 29.873C66.5381 28.9403 66.0469 27.8721 66.1892 26.7664C66.1945 26.7288 66.169 26.6953 66.1315 26.6899C66.0939 26.6859 66.0604 26.7127 66.0536 26.749Z" fill="white"/>
<path d="M54.6701 37.9245C56.004 37.9272 57.3982 37.3783 58.2571 36.3182C59.1293 35.2809 59.552 33.9793 59.7372 32.6964C59.9251 31.3961 59.7533 30.0716 59.4084 28.8343C59.0622 27.5904 58.5509 26.4122 58.0061 25.2581C57.9873 25.2165 57.9377 25.1991 57.8974 25.2192C57.8572 25.238 57.8397 25.2849 57.8572 25.3252C58.8408 27.6427 59.7036 30.1534 59.2715 32.6266C59.0783 33.8477 58.6516 35.0608 57.8572 35.972C57.0735 36.9006 55.8792 37.3488 54.6701 37.3367C54.5077 37.3354 54.3749 37.4656 54.3735 37.6279C54.3722 37.7903 54.5024 37.9232 54.6647 37.9245H54.6701Z" fill="white"/>
<path d="M64.5346 30.8445C64.2702 27.9701 62.88 25.2111 60.7101 23.2788C59.6352 22.3354 58.2396 21.5383 56.6991 21.6846C55.9356 21.7678 55.223 22.1328 54.6889 22.6816C54.1575 23.2211 53.8073 24.0235 53.9482 24.826C53.9683 24.9522 54.0877 25.038 54.2139 25.0166C54.34 24.9951 54.4259 24.877 54.4044 24.7509L54.4031 24.7468C54.1642 23.4505 55.4431 22.22 56.7421 22.0737C58.1054 21.9154 59.446 22.6212 60.4994 23.5203C62.6371 25.3588 64.0515 28.0372 64.3575 30.862C64.3628 30.9103 64.4058 30.9452 64.4541 30.9398C64.5037 30.9358 64.5386 30.8928 64.5346 30.8445Z" fill="white"/>
<path d="M56.1248 31.4148C56.118 29.7898 55.8309 28.162 55.2579 26.6349C54.6795 25.1132 53.8905 23.6599 52.7753 22.4347C51.6897 21.2082 49.972 20.3574 48.2624 20.6848C46.5421 20.9183 45.1867 22.8722 45.8953 24.5482C45.9315 24.6341 46.0295 24.673 46.1153 24.6368C46.1985 24.6019 46.2361 24.5026 46.2053 24.4194C45.6792 22.9835 46.8588 21.3182 48.347 21.1371C49.8647 20.8673 51.3743 21.647 52.4184 22.7729C53.4798 23.9135 54.2729 25.3265 54.8446 26.7906C55.4028 28.268 55.7329 29.8354 55.7893 31.4215C55.792 31.5141 55.8698 31.5866 55.9624 31.5839C56.0536 31.5812 56.1248 31.5048 56.1248 31.4148Z" fill="white"/>
<path d="M49.8875 25.8673C51.2616 29.0799 51.1959 32.8292 49.7748 35.9237C49.6849 36.1196 49.7708 36.3531 49.9667 36.443C50.1626 36.5329 50.3961 36.4471 50.486 36.2511C50.4887 36.2444 50.4927 36.2364 50.4954 36.2297C51.8145 32.844 51.6199 28.9699 50.0405 25.7976C50.0204 25.756 49.9694 25.7385 49.9278 25.76C49.8875 25.7788 49.8701 25.8271 49.8875 25.8673Z" fill="white"/>
<path d="M38.7428 33.4492C38.0652 32.5112 37.566 31.2779 37.7096 30.1588C37.8813 28.9832 38.406 27.8238 38.4463 26.5195C38.5308 23.9631 37.1674 21.4054 34.9385 20.0984C32.7042 18.8195 29.8083 18.8531 27.6237 20.1977C25.4377 21.5409 24.1172 24.1148 24.2903 26.647C24.297 26.7396 24.3762 26.8093 24.4688 26.8026C24.5587 26.7959 24.6271 26.7194 24.6245 26.6295C24.5466 24.2288 25.8537 21.8469 27.8773 20.6164C29.909 19.3885 32.621 19.3925 34.6527 20.5895C36.6977 21.7624 38.0115 24.1335 37.9524 26.5047C37.9377 27.6816 37.4371 28.8356 37.26 30.097C37.1728 30.768 37.3352 31.4135 37.5512 32.0039C37.7793 32.5984 38.0746 33.162 38.4825 33.6612C38.5415 33.7323 38.6462 33.743 38.7187 33.6853C38.7871 33.629 38.8005 33.5297 38.7482 33.4572L38.7428 33.4492Z" fill="white"/>
<path d="M34.599 29.2946C33.967 27.589 32.3875 26.2646 30.5625 25.9465C28.7361 25.6338 26.7702 26.3464 25.5571 27.793C25.4592 27.9084 25.4753 28.0815 25.5907 28.1795C25.7061 28.2774 25.8792 28.2613 25.9771 28.1459C25.9785 28.1432 25.9825 28.1406 25.9838 28.1379C27.0158 26.8107 28.8073 26.074 30.5061 26.3088C32.205 26.5423 33.7657 27.742 34.4272 29.3617C34.446 29.4087 34.4997 29.4315 34.548 29.4127C34.5936 29.3926 34.6164 29.3402 34.599 29.2946Z" fill="white"/>
<path d="M31.6884 26.4135C32.3808 25.7747 32.6881 24.7911 32.4962 23.8934C32.3003 22.9956 31.6213 22.2495 30.7705 21.9691C30.7074 21.9476 30.639 21.9825 30.6175 22.0455C30.5974 22.1073 30.6296 22.173 30.69 22.1958C31.4415 22.483 32.0118 23.1902 32.1366 23.9618C32.2654 24.7334 31.9487 25.5627 31.365 26.0445C31.2603 26.1304 31.2455 26.2847 31.3314 26.3893C31.4173 26.494 31.5716 26.5088 31.6763 26.4229C31.6803 26.4202 31.6857 26.4162 31.6884 26.4135Z" fill="white"/>
<path d="M20.4846 28.3096C20.6108 27.9487 20.3893 27.6051 20.231 27.3153C20.0404 27.0254 19.7761 26.7852 19.4648 26.6336C18.8408 26.3343 18.0866 26.4108 17.5498 26.8C17.5109 26.8281 17.5015 26.8832 17.5297 26.9234C17.5565 26.961 17.6089 26.9704 17.6478 26.9462C18.1537 26.6349 18.8247 26.6349 19.3118 26.9221C19.5547 27.0643 19.7546 27.2777 19.8875 27.5233C20.0525 27.7675 20.0203 28.0453 20.1491 28.3123L20.1572 28.3298C20.2001 28.4183 20.3061 28.4546 20.3947 28.4116C20.4376 28.3901 20.4685 28.3526 20.4846 28.3096Z" fill="white"/>
<path d="M43.9844 28.0372C44.6903 28.2546 45.5061 28.1271 46.1154 27.6534C46.7139 27.1744 47.0453 26.3518 46.883 25.5694C46.726 24.7817 46.1583 24.1899 45.5719 23.7605C44.9721 23.3204 44.2931 23.0386 43.6489 22.7675C42.9981 22.5018 42.3674 22.2307 41.8185 21.8442C41.2845 21.4457 40.843 20.9022 40.5679 20.293C40.3049 19.6797 40.2284 18.9806 40.4109 18.323C40.5853 17.6655 40.9436 17.0563 41.3905 16.5249C41.424 16.4859 41.4213 16.4282 41.3824 16.3934C41.3435 16.3598 41.2845 16.3652 41.2496 16.4027C40.7906 16.9462 40.3733 17.5501 40.1613 18.2533C39.9358 18.9511 39.9841 19.7347 40.2485 20.4231C40.7772 21.8362 42.1473 22.742 43.449 23.2358C44.0985 23.5136 44.7413 23.7632 45.2847 24.1564C45.8309 24.5375 46.2912 25.0528 46.4442 25.662C46.5998 26.2645 46.3663 26.9543 45.8832 27.377C45.4109 27.8118 44.6889 27.9956 44.0341 27.8453C43.9817 27.8332 43.928 27.8655 43.916 27.9178C43.9052 27.9715 43.9361 28.0225 43.9844 28.0372Z" fill="white"/>
<path d="M34.6285 20.148C34.9774 19.5294 34.9828 18.7484 34.65 18.1392C34.3172 17.53 33.7026 17.1193 33.045 16.9932C33.0061 16.9851 32.9685 17.0106 32.9605 17.0495C32.9538 17.0871 32.9779 17.1234 33.0142 17.1327C33.6247 17.2804 34.1709 17.6964 34.4353 18.2479C34.7023 18.7967 34.6567 19.4757 34.3386 19.9776C34.289 20.0555 34.3118 20.1601 34.391 20.2098C34.4688 20.2594 34.5735 20.2366 34.6231 20.1588C34.6245 20.1561 34.6271 20.1507 34.6285 20.148Z" fill="white"/>
<path d="M49.8164 21.1652C51.0993 21.1129 52.0923 19.9642 52.0735 18.7605C52.0386 17.5541 50.9946 16.5061 49.8164 16.5181C49.7614 16.5181 49.7171 16.5638 49.7171 16.6201C49.7171 16.6738 49.7627 16.7181 49.8164 16.7194C50.8658 16.753 51.7434 17.7648 51.7099 18.7605C51.6897 19.7589 50.7611 20.6687 49.8164 20.6378C49.6701 20.6325 49.548 20.7465 49.5427 20.8915C49.5373 21.0377 49.6514 21.1598 49.7963 21.1652C49.8017 21.1652 49.8097 21.1652 49.8164 21.1652Z" fill="white"/>
<path d="M58.9294 22.1945C58.7281 21.5504 58.2437 21.1478 57.974 20.6486C57.7123 20.1937 57.7163 19.4301 58.2759 19.2168C58.3041 19.206 58.3188 19.1738 58.3081 19.1456C58.2974 19.1188 58.2678 19.1054 58.241 19.1121C57.9243 19.198 57.7042 19.5066 57.6532 19.8166C57.5942 20.1306 57.6412 20.4567 57.7767 20.7479C58.0451 21.3075 58.4893 21.7517 58.606 22.279C58.6248 22.3703 58.7147 22.428 58.806 22.4079C58.8972 22.3877 58.9549 22.2992 58.9348 22.2079C58.9321 22.2052 58.9308 22.1985 58.9294 22.1945Z" fill="white"/>
<path d="M63.9871 22.8641C64.0408 23.4425 63.7254 24.0302 63.237 24.304C62.7512 24.5791 62.103 24.5335 61.6723 24.2127C61.5985 24.1577 61.4925 24.1725 61.4374 24.2476C61.3824 24.3214 61.3972 24.4274 61.4723 24.4825C61.475 24.4851 61.479 24.4878 61.4817 24.4892C62.0507 24.8569 62.8035 24.8542 63.3564 24.5026C63.9079 24.147 64.2058 23.476 64.1132 22.8493C64.1079 22.8145 64.0757 22.7903 64.0408 22.7957C64.0072 22.7997 63.9831 22.8306 63.9871 22.8641Z" fill="white"/>
<path d="M70.1331 31.757C69.43 31.6161 68.767 32.2415 68.6087 32.9433C68.5845 33.0332 68.6382 33.1258 68.7281 33.15C68.818 33.1741 68.9106 33.1204 68.9348 33.0305C68.9375 33.0225 68.9388 33.0064 68.9402 32.9983C68.9791 32.4213 69.4461 31.7624 70.1278 31.7906C70.1372 31.7919 70.1452 31.7852 70.1465 31.7758C70.1465 31.7664 70.1412 31.7584 70.1331 31.757Z" fill="white"/>
<path d="M40.9369 21.0726C40.2337 20.4164 39.3748 19.7656 38.3201 19.7079C37.8115 19.6784 37.2506 19.8005 36.848 20.1642C36.4521 20.5063 36.173 21.0377 36.2535 21.5799C36.2643 21.647 36.326 21.6939 36.3931 21.6832C36.4548 21.6738 36.4991 21.6188 36.4978 21.5571C36.4911 21.1183 36.7165 20.6929 37.06 20.4178C37.4022 20.144 37.8504 20.0139 38.3053 20.0286C39.2353 20.0488 40.0633 20.6204 40.7745 21.2511C40.8241 21.2954 40.9006 21.2914 40.9449 21.2404C40.9892 21.1921 40.9838 21.1169 40.9369 21.0726Z" fill="white"/>
<path d="M26.3112 21.3196C25.8832 21.4779 25.3705 21.4497 24.9452 21.2297C24.5198 21.0109 24.1816 20.5989 24.0501 20.1172C24.0474 20.1078 24.0367 20.1011 24.0273 20.1038C24.0179 20.1065 24.0125 20.1159 24.0139 20.1252C24.0997 20.6285 24.4044 21.1008 24.8512 21.3907C25.2981 21.6792 25.8724 21.7772 26.4092 21.6403C26.4991 21.6175 26.5541 21.5276 26.5327 21.4363C26.5098 21.3464 26.4199 21.2914 26.3287 21.3128C26.3233 21.3142 26.3166 21.3169 26.3112 21.3196Z" fill="white"/>
<path d="M64.9989 39.8354C62.8424 39.3161 60.4068 40.1025 58.9415 41.8564C58.8435 41.9731 58.8583 42.1476 58.975 42.2455C59.0918 42.3435 59.2662 42.3287 59.3642 42.212C59.3668 42.2079 59.3709 42.2039 59.3736 42.1999C60.6081 40.548 62.8599 39.6529 64.9533 40.0474C65.0123 40.0582 65.0687 40.0206 65.0794 39.9616C65.0901 39.9052 65.0539 39.8502 64.9989 39.8354Z" fill="white"/>
<path d="M45.5088 49.2302C44.2313 49.1202 43.0075 48.6022 42.0051 47.8158C41.4992 47.432 41.0698 46.9355 40.4967 46.5611C39.9331 46.1398 39.1199 46.121 38.4959 46.3075C37.2439 46.6658 35.9825 46.8523 34.7023 46.8121C33.4288 46.7772 32.1634 46.5343 30.9704 46.0995C30.8282 46.0472 30.6712 46.121 30.6189 46.2632C30.5665 46.4055 30.6403 46.5625 30.7826 46.6148C30.7839 46.6148 30.7866 46.6162 30.7893 46.6175C32.048 47.0429 33.3725 47.2643 34.6956 47.2697C36.0161 47.2831 37.3486 47.0496 38.5859 46.6631C39.1978 46.4806 39.8043 46.4779 40.3263 46.8335C40.8537 47.1583 41.3006 47.6441 41.8373 48.0359C42.8961 48.8263 44.175 49.3335 45.4941 49.4154C45.5451 49.4181 45.5893 49.3805 45.592 49.3295C45.5974 49.2785 45.5585 49.2356 45.5088 49.2302Z" fill="white"/>
<path d="M50.8859 48.9766C51.7018 48.629 52.3647 47.9205 52.6573 47.0549C52.9485 46.1894 52.8585 45.1977 52.3956 44.3805C52.3218 44.249 52.1554 44.2007 52.0225 44.2745C51.891 44.3483 51.8427 44.5147 51.9165 44.6475C51.9192 44.6529 51.9246 44.661 51.9286 44.6663C52.3607 45.3131 52.511 46.1706 52.307 46.9503C52.1044 47.7299 51.5488 48.4304 50.8081 48.8102C50.7625 48.833 50.745 48.8893 50.7678 48.935C50.7893 48.9779 50.8416 48.9954 50.8859 48.9766Z" fill="white"/>
<path d="M17.7579 32.5863C17.574 32.3273 17.2506 32.3126 16.9889 32.22C16.7112 32.1542 16.4267 32.1234 16.1449 32.1274C15.5813 32.1354 15.0244 32.2804 14.544 32.5568C14.5024 32.581 14.4876 32.6346 14.5117 32.6776C14.5346 32.7178 14.5842 32.7326 14.6258 32.7138C15.1009 32.4964 15.6269 32.4132 16.1355 32.4535C16.3904 32.4736 16.6414 32.5246 16.8789 32.6065C17.1339 32.6601 17.3083 32.8574 17.5848 32.8748L17.5968 32.8762C17.6975 32.8829 17.7847 32.8064 17.7914 32.7044C17.7941 32.6601 17.7807 32.6199 17.7579 32.5863Z" fill="white"/>
<path d="M22.4935 51.8966C22.252 51.3277 21.8185 50.8996 21.5421 50.3695C21.2415 49.8596 20.9892 49.3201 20.8483 48.7512C20.5719 47.6427 20.7812 46.2954 21.7165 45.552C21.7554 45.5225 21.7622 45.4675 21.7326 45.4286C21.7031 45.391 21.6494 45.3843 21.6105 45.4111C20.5638 46.1787 20.2807 47.6132 20.5289 48.8236C20.6551 49.4382 20.8993 50.0206 21.1918 50.5654C21.5099 51.0928 21.7662 51.6631 22.2184 52.0885C22.2868 52.1529 22.3955 52.1503 22.4613 52.0805C22.5083 52.0308 22.519 51.957 22.4935 51.8966Z" fill="white"/>
<path d="M24.7197 45.3937C24.8808 45.6191 24.9935 45.9412 24.8365 46.337C24.6996 46.7155 24.552 47.2012 24.5963 47.6535C24.6513 48.5619 25.1626 49.4275 25.9489 49.8596C25.9919 49.8824 26.0456 49.8676 26.0684 49.8247C26.0912 49.7831 26.0764 49.7321 26.0375 49.7066C25.3357 49.2665 24.921 48.4425 24.9224 47.6427C24.9143 47.2294 25.0431 46.8819 25.2162 46.4659C25.2941 46.2592 25.3665 46.0096 25.3384 45.7439C25.2994 45.5185 25.227 45.1293 24.8767 45.0958C24.7774 45.0864 24.6889 45.1588 24.6795 45.2581C24.6755 45.3038 24.6875 45.3467 24.7117 45.3802L24.7197 45.3937Z" fill="white"/>
<path d="M42.0225 47.8306C41.6145 47.6816 41.1905 47.8306 40.7919 47.9151C40.392 48.0319 40.0082 48.2211 39.6862 48.4908C39.0447 49.0262 38.669 49.9052 38.873 50.7238C38.885 50.7707 38.932 50.8003 38.9803 50.7882C39.0259 50.7774 39.0541 50.7305 39.0461 50.6862C38.9079 49.9414 39.3024 49.1752 39.8888 48.7471C40.1867 48.5297 40.5329 48.3835 40.8952 48.3029C41.2589 48.1902 41.6293 48.2734 42.0064 48.1647C42.1003 48.1419 42.158 48.0466 42.1338 47.9514C42.1191 47.8963 42.0721 47.8507 42.0225 47.8306Z" fill="white"/>
<path d="M53.8287 41.6564C53.928 42.4052 53.924 43.2573 53.296 43.6827C52.6975 44.1067 51.9299 44.3147 51.1905 44.3349C49.6969 44.3966 48.2154 43.5471 47.5834 42.2388C47.5176 42.1032 47.3539 42.0455 47.217 42.1113C47.0815 42.177 47.0238 42.3408 47.0896 42.4776C47.0909 42.4803 47.0936 42.4857 47.0949 42.4884C47.892 43.9766 49.5896 44.8273 51.2066 44.6999C52.0144 44.6422 52.8088 44.4006 53.4664 43.8987C53.7992 43.6438 54.0179 43.2318 54.0649 42.8252C54.1199 42.4172 54.0662 42.0187 54.0112 41.6336C54.0045 41.5826 53.9589 41.5463 53.9079 41.553C53.8596 41.5598 53.8233 41.6067 53.8287 41.6564Z" fill="white"/>
<path opacity="0.059" d="M38.7764 50.7348C38.8542 51.0206 38.8918 51.3614 38.8958 51.7842C38.8878 51.8284 38.8918 51.8741 38.8878 51.9197C38.8743 52.0955 38.8502 52.2699 38.8166 52.443C38.6489 53.2965 38.2436 54.1231 37.6841 54.8276C36.1328 53.8467 34.5802 53.3139 33.0276 53.1153C31.8051 52.9583 30.5826 53.008 29.3615 53.2106C28.0491 53.428 26.7393 53.8199 25.4296 54.3177C23.9683 54.8733 22.5056 55.5576 21.0429 56.2554C20.6765 55.9441 20.341 55.6006 20.0458 55.2275C20.0311 55.2061 20.0163 55.1846 20.0015 55.1645C19.7989 54.8679 19.6204 54.5552 19.4701 54.2291C19.3816 54.0171 19.3051 53.797 19.242 53.5703C19.1642 53.2858 19.1212 52.9852 19.1011 52.6819C20.702 52.6953 22.2667 52.1424 23.8153 51.6204C24.1051 51.5225 24.3937 51.4272 24.6822 51.3346C26.8628 50.6435 29.132 50.2383 31.4159 50.1175C33.716 49.9954 36.0322 50.1618 38.2893 50.6153C38.4543 50.6462 38.614 50.6959 38.7764 50.7348Z" fill="#E5E5E5"/>
<path opacity="0.118" d="M38.7764 50.7348C38.8542 51.0206 38.8918 51.3614 38.8958 51.7842C38.8797 51.8231 38.8878 51.8674 38.8811 51.909C38.8582 52.0713 38.826 52.231 38.7831 52.392C38.5764 53.1824 38.1443 53.9487 37.5686 54.6049C36.0214 53.6749 34.4742 53.173 32.9256 52.9919C31.7112 52.8483 30.4981 52.9033 29.285 53.1046C27.9806 53.322 26.6776 53.7071 25.3773 54.1969C23.9226 54.7444 22.4666 55.4194 21.008 56.0877C20.6376 55.8005 20.2967 55.4812 19.9921 55.1323C19.9774 55.1108 19.9626 55.0893 19.9492 55.0692C19.7533 54.7726 19.5815 54.46 19.4393 54.1325C19.3695 53.9339 19.3118 53.7273 19.2661 53.5139C19.2098 53.2455 19.1883 52.9624 19.1856 52.6739C20.7745 52.6712 22.3271 52.1196 23.8636 51.603C24.1508 51.5064 24.4379 51.4111 24.7251 51.3212C26.8923 50.6381 29.1454 50.2369 31.4132 50.1175C33.7133 49.9954 36.0295 50.1618 38.2866 50.6153C38.4543 50.6462 38.614 50.6959 38.7764 50.7348Z" fill="#E5E5E5"/>
<path opacity="0.176" d="M38.7764 50.7352C38.8542 51.021 38.8918 51.3618 38.8958 51.7845C38.8717 51.8181 38.8837 51.861 38.8743 51.8986C38.8421 52.0476 38.8019 52.1938 38.7509 52.3414C38.504 53.0688 38.0477 53.7746 37.4559 54.3812C35.9141 53.5035 34.3695 53.0312 32.8276 52.8675C31.6212 52.7373 30.4162 52.7964 29.2138 52.9963C27.9162 53.2123 26.6226 53.5921 25.3316 54.0725C23.8837 54.612 22.4344 55.2776 20.9798 55.9177C20.6067 55.6533 20.2592 55.3594 19.9465 55.0347C19.9331 55.0132 19.9183 54.9931 19.9049 54.9716C19.7144 54.675 19.5506 54.361 19.4151 54.035C19.3641 53.8498 19.3252 53.6565 19.297 53.4566C19.2635 53.2056 19.2608 52.9373 19.2769 52.6662C20.8523 52.6474 22.3928 52.0959 23.9186 51.5859C24.2044 51.4907 24.4889 51.3967 24.7748 51.3068C26.9272 50.6318 29.1655 50.236 31.4173 50.1165C33.7173 49.9944 36.0335 50.1608 38.2906 50.6144C38.4543 50.6466 38.614 50.6962 38.7764 50.7352Z" fill="#E5E5E5"/>
<path opacity="0.235" d="M38.7764 50.7348C38.8542 51.0206 38.8918 51.3614 38.8958 51.7842C38.8636 51.8137 38.8797 51.8539 38.8663 51.8888C38.8247 52.0244 38.775 52.1572 38.7173 52.2914C38.4302 52.9543 37.9484 53.6025 37.3405 54.1594C35.804 53.3327 34.2635 52.8912 32.7257 52.745C31.5287 52.6282 30.3317 52.6913 29.1374 52.8912C27.8478 53.1073 26.5609 53.479 25.2807 53.9527C23.8394 54.4841 22.3955 55.1403 20.9463 55.7509C20.5692 55.5107 20.2149 55.2409 19.8942 54.939C19.8808 54.9175 19.866 54.8974 19.8526 54.8759C19.6687 54.578 19.5131 54.2654 19.3829 53.9393C19.3521 53.7675 19.3306 53.5877 19.3198 53.4012C19.3078 53.1663 19.3252 52.9154 19.3601 52.6604C20.9234 52.6269 22.4519 52.0753 23.9656 51.5708C24.2487 51.4769 24.5332 51.3829 24.8164 51.2944C26.9554 50.6288 29.1763 50.2369 31.4133 50.1175C33.7133 49.9954 36.0295 50.1618 38.2866 50.6153C38.4543 50.6462 38.614 50.6959 38.7764 50.7348Z" fill="#E5E5E5"/>
<path opacity="0.294" d="M38.7764 50.7352C38.8542 51.021 38.8918 51.3618 38.8958 51.7845C38.8542 51.8087 38.8757 51.8476 38.8596 51.8785C38.8086 52.0006 38.7509 52.1187 38.6838 52.2408C38.3577 52.8406 37.8505 53.4284 37.2265 53.9356C35.694 53.16 34.1588 52.7507 32.625 52.6206C31.4361 52.5172 30.2485 52.5857 29.0635 52.7843C27.7807 52.999 26.5031 53.3653 25.231 53.831C23.7965 54.3557 22.3593 55.0011 20.914 55.5822C20.5329 55.3661 20.1733 55.1206 19.8432 54.8428C19.8298 54.8213 19.8163 54.8012 19.8029 54.7797C19.6258 54.4818 19.4768 54.1678 19.3547 53.8431C19.3426 53.6847 19.34 53.5183 19.3467 53.3439C19.3561 53.1251 19.395 52.8916 19.4487 52.6514C20.9999 52.6018 22.5163 52.0516 24.0192 51.5511C24.3011 51.4571 24.5829 51.3659 24.8633 51.2786C26.9876 50.6211 29.1937 50.2333 31.4146 50.1165C33.7146 49.9944 36.0308 50.1608 38.2879 50.6144C38.4543 50.6466 38.614 50.6962 38.7764 50.7352Z" fill="#E5E5E5"/>
<path opacity="0.353" d="M38.7764 50.7345C38.8542 51.0203 38.8918 51.3612 38.8958 51.7839C38.8462 51.8027 38.8717 51.8402 38.8529 51.8671C38.7925 51.9758 38.7267 52.0804 38.6516 52.1891C38.2852 52.7259 37.7525 53.2546 37.1124 53.7109C35.5853 52.9862 34.0528 52.6078 32.5244 52.4951C31.3435 52.4052 30.1639 52.4776 28.9884 52.6749C27.7136 52.8896 26.4428 53.2492 25.1814 53.7055C23.7536 54.2221 22.3217 54.8582 20.8832 55.4111C20.4981 55.2192 20.1331 54.9978 19.7949 54.7442C19.7828 54.7227 19.7681 54.7026 19.756 54.6811C19.5855 54.3832 19.4433 54.0692 19.3279 53.7444C19.3346 53.5995 19.3507 53.4465 19.3762 53.2855C19.4084 53.0829 19.4661 52.8655 19.5386 52.6427C21.0764 52.5769 22.5821 52.0268 24.0729 51.5329C24.3521 51.4403 24.6325 51.3491 24.9116 51.2632C27.0225 50.6137 29.2125 50.2313 31.4173 50.1145C33.7173 49.9924 36.0335 50.1588 38.2906 50.6124C38.4543 50.6459 38.614 50.6956 38.7764 50.7345Z" fill="#E5E5E5"/>
<path opacity="0.412" d="M38.7764 50.7352C38.8542 51.021 38.8918 51.3618 38.8958 51.7845C38.8381 51.7993 38.8676 51.8342 38.8462 51.8584C38.7764 51.9536 38.7026 52.0435 38.6194 52.1402C38.2128 52.6125 37.6545 53.0822 36.9997 53.4901C35.4779 52.8165 33.9495 52.4689 32.4251 52.3737C31.2522 52.2972 30.0821 52.3737 28.9159 52.5709C27.6478 52.7843 26.3864 53.1386 25.1344 53.5868C23.7133 54.0953 22.2882 54.722 20.8537 55.2454C20.4645 55.0776 20.0941 54.8804 19.7466 54.6496C19.7345 54.6281 19.7211 54.608 19.709 54.5865C19.5439 54.2886 19.4098 53.9746 19.3011 53.6498C19.3279 53.5183 19.3614 53.3788 19.4044 53.2311C19.4581 53.046 19.5359 52.8447 19.6271 52.6367C21.1529 52.5548 22.6465 52.006 24.1253 51.5175C24.4031 51.4263 24.6808 51.3363 24.9586 51.2518C27.0547 50.6104 29.2299 50.2333 31.4186 50.1165C33.7187 49.9944 36.0348 50.1608 38.2919 50.6144C38.4543 50.6466 38.614 50.6963 38.7764 50.7352Z" fill="#E5E5E5"/>
<path opacity="0.471" d="M38.7764 50.7352C38.8542 51.021 38.8918 51.3618 38.8958 51.7845C38.8301 51.7939 38.8649 51.8275 38.8395 51.8476C38.7603 51.9295 38.6771 52.006 38.5858 52.0892C38.1403 52.4984 37.5566 52.9091 36.8843 53.266C35.3666 52.6447 33.8435 52.3267 32.3231 52.2488C31.1596 52.1858 29.9962 52.2676 28.8394 52.4636C27.5794 52.6769 26.3247 53.0231 25.0821 53.4646C23.6677 53.9652 22.2493 54.5811 20.8188 55.0776C20.4256 54.934 20.0485 54.7609 19.6942 54.5543C19.6822 54.5328 19.6687 54.5127 19.658 54.4912C19.4997 54.1933 19.3722 53.8779 19.2715 53.5545C19.3172 53.4364 19.3695 53.3103 19.4299 53.1761C19.5064 53.007 19.6043 52.8232 19.713 52.6313C21.2254 52.5347 22.7069 51.9858 24.1749 51.5014C24.45 51.4101 24.7264 51.3216 25.0029 51.2384C27.0856 50.6063 29.2434 50.2319 31.4173 50.1165C33.7173 49.9944 36.0335 50.1608 38.2906 50.6144C38.4543 50.6466 38.614 50.6962 38.7764 50.7352Z" fill="#E5E5E5"/>
<path opacity="0.529" d="M38.7764 50.7348C38.8542 51.0206 38.8918 51.3614 38.8958 51.7842C38.822 51.7882 38.8609 51.8204 38.8314 51.8365C38.7428 51.9049 38.6516 51.968 38.5523 52.0378C38.0665 52.384 37.4573 52.7342 36.7689 53.0429C35.2565 52.4726 33.7375 52.1854 32.2211 52.125C31.0657 52.0754 29.9116 52.1612 28.7629 52.3558C27.5096 52.5692 26.2643 52.9087 25.0311 53.3421C23.6234 53.8346 22.2103 54.4412 20.7852 54.9082C20.388 54.7887 20.0056 54.6398 19.6419 54.4573C19.6312 54.4358 19.6177 54.4157 19.607 54.3942C19.4554 54.0949 19.3359 53.7809 19.2407 53.4575C19.3051 53.3529 19.3762 53.2401 19.454 53.1194C19.552 52.9664 19.6701 52.7986 19.7976 52.6242C21.2978 52.5115 22.7672 51.9626 24.2246 51.4849C24.4983 51.395 24.7721 51.3078 25.0472 51.2246C27.1151 50.6006 29.2581 50.2315 31.4159 50.1175C33.716 49.9954 36.0321 50.1618 38.2893 50.6153C38.4543 50.6462 38.614 50.6959 38.7764 50.7348Z" fill="#E5E5E5"/>
<path opacity="0.588" d="M38.7764 50.7348C38.8542 51.0206 38.8918 51.3614 38.8958 51.7842C38.814 51.7842 38.8569 51.8137 38.8247 51.8271C38.7267 51.8821 38.6274 51.9304 38.5201 51.9881C37.994 52.2713 37.3593 52.5611 36.6561 52.8201C35.1478 52.3008 33.6328 52.0445 32.1218 52.0015C30.9744 51.9653 29.8284 52.0566 28.6905 52.2498C27.4452 52.4618 26.2066 52.796 24.9841 53.22C23.5831 53.7058 22.1768 54.3016 20.7557 54.7404C20.3545 54.6451 19.9666 54.5203 19.5936 54.362C19.5829 54.3405 19.5694 54.3204 19.5587 54.2989C19.4138 53.9997 19.301 53.6843 19.2125 53.3623C19.297 53.271 19.3856 53.1717 19.4809 53.063C19.6016 52.9261 19.7385 52.7758 19.8848 52.6161C21.373 52.4873 22.8303 51.9398 24.2756 51.4675C24.5466 51.3789 24.819 51.293 25.0914 51.2112C27.1459 50.5952 29.2729 50.2315 31.4146 50.1175C33.7146 49.9954 36.0308 50.1618 38.2879 50.6153C38.4543 50.6462 38.614 50.6959 38.7764 50.7348Z" fill="#E5E5E5"/>
<path opacity="0.647" d="M38.7764 50.7352C38.8542 51.021 38.8918 51.3618 38.8958 51.7845C38.8046 51.7792 38.8529 51.8074 38.818 51.8168C38.7106 51.8584 38.6019 51.8932 38.4865 51.9375C37.9202 52.1563 37.2613 52.3884 36.5407 52.5978C35.0378 52.1294 33.5268 51.904 32.0198 51.8785C30.8805 51.8557 29.7439 51.9509 28.614 52.1442C27.3754 52.3562 26.1462 52.6823 24.9331 53.0996C23.5388 53.5774 22.1379 54.1638 20.7221 54.5731C20.3182 54.5019 19.9237 54.4013 19.5426 54.2658C19.5319 54.2443 19.5198 54.2242 19.5091 54.2027C19.3695 53.9034 19.2648 53.5881 19.1843 53.266C19.2876 53.1895 19.395 53.1023 19.5077 53.007C19.6513 52.8876 19.8083 52.7534 19.972 52.6098C21.4468 52.4649 22.8934 51.9187 24.3266 51.4504C24.5963 51.3632 24.866 51.2773 25.1371 51.1968C27.1768 50.5889 29.289 50.2293 31.4146 50.1165C33.7146 49.9944 36.0308 50.1608 38.2879 50.6144C38.4543 50.6466 38.614 50.6962 38.7764 50.7352Z" fill="#E5E5E5"/>
<path opacity="0.706" d="M38.7764 50.7352C38.8542 51.021 38.8918 51.3618 38.8958 51.7845C38.7965 51.7752 38.8488 51.8006 38.8113 51.806C38.6945 51.8342 38.5778 51.8557 38.4543 51.8865C37.8491 52.0422 37.1634 52.214 36.428 52.3736C34.9304 51.9577 33.4234 51.7631 31.9205 51.7537C30.7893 51.7443 29.662 51.8436 28.5415 52.0355C27.311 52.2462 26.0885 52.5669 24.8848 52.9762C23.4972 53.4458 22.103 54.0229 20.6913 54.404C20.2833 54.357 19.8821 54.2805 19.4929 54.1691C19.4835 54.1477 19.4701 54.1275 19.4607 54.1061C19.3279 53.8068 19.2299 53.4901 19.1561 53.1694C19.2782 53.1063 19.4044 53.0325 19.5359 52.9507C19.7009 52.8473 19.8781 52.7293 20.0606 52.6018C21.5233 52.4421 22.9564 51.8946 24.3789 51.433C24.6473 51.3457 24.9157 51.2625 25.184 51.182C27.2103 50.5822 29.3064 50.2279 31.4146 50.1165C33.7146 49.9944 36.0308 50.1608 38.2879 50.6144C38.4543 50.6466 38.614 50.6962 38.7764 50.7352Z" fill="#E5E5E5"/>
<path opacity="0.765" d="M38.7764 50.7352C38.8542 51.021 38.8918 51.3618 38.8958 51.7845C38.7885 51.7698 38.8448 51.7939 38.8032 51.7966C38.6784 51.8114 38.5523 51.8181 38.4208 51.8369C37.7753 51.9295 37.0654 52.0422 36.3126 52.1509C34.819 51.7859 33.3161 51.6222 31.8185 51.6302C30.6967 51.6343 29.5762 51.7389 28.465 51.9295C27.2412 52.1402 26.0281 52.4542 24.8338 52.8541C23.453 53.3157 22.0641 53.8833 20.6591 54.2349C20.2471 54.2121 19.8405 54.1598 19.442 54.0725C19.4326 54.0511 19.4205 54.0309 19.4111 54.0095C19.285 53.7102 19.1937 53.3935 19.1279 53.0714C19.2702 53.0218 19.4151 52.9614 19.5627 52.893C19.7506 52.8057 19.9465 52.7051 20.1478 52.5937C21.5971 52.4179 23.0195 51.8718 24.4312 51.4155C24.6969 51.3296 24.964 51.2464 25.231 51.1686C27.2426 50.5782 29.3225 50.2279 31.4159 50.1165C33.716 49.9944 36.0322 50.1608 38.2893 50.6144C38.4543 50.6466 38.614 50.6962 38.7764 50.7352Z" fill="#E5E5E5"/>
<path opacity="0.824" d="M38.7764 50.7352C38.8542 51.021 38.8918 51.3618 38.8958 51.7845C38.7804 51.7644 38.8408 51.7872 38.7965 51.7859C38.6623 51.7872 38.5281 51.7805 38.3872 51.7859C37.7015 51.8141 36.9661 51.8677 36.1985 51.9281C34.7104 51.6141 33.2114 51.4813 31.7179 51.5068C30.6041 51.5242 29.493 51.6329 28.3912 51.8235C27.1741 52.0328 25.9691 52.3414 24.7855 52.7333C23.4114 53.1882 22.0292 53.7451 20.6282 54.0685C20.2122 54.0698 19.8002 54.0417 19.3936 53.9772C19.3843 53.9558 19.3722 53.9356 19.3641 53.9142C19.2447 53.6136 19.1602 53.2982 19.1011 52.9762C19.2621 52.9399 19.4259 52.893 19.5909 52.838C19.8016 52.7682 20.0176 52.6836 20.2364 52.5884C21.6736 52.3965 23.0839 51.8516 24.4836 51.3994C24.7479 51.3149 25.0123 51.233 25.278 51.1552C27.2748 50.5728 29.34 50.2266 31.4173 50.1165C33.7173 49.9944 36.0335 50.1608 38.2906 50.6144C38.4543 50.6466 38.614 50.6962 38.7764 50.7352Z" fill="#E5E5E5"/>
<path opacity="0.882" d="M38.7764 50.7345C38.8542 51.0203 38.8918 51.3612 38.8958 51.7839C38.7724 51.7597 38.8368 51.7798 38.7898 51.7745C38.6462 51.7624 38.5026 51.7409 38.355 51.7342C37.6304 51.6993 36.8682 51.6926 36.0845 51.7034C34.6017 51.4403 33.1068 51.3384 31.6172 51.3826C30.5115 51.4135 29.4084 51.5262 28.3161 51.7154C27.107 51.9248 25.91 52.2254 24.7345 52.6105C23.3671 53.0574 21.9916 53.6049 20.5947 53.8987C20.1746 53.9242 19.756 53.9202 19.3413 53.88C19.3333 53.8585 19.3212 53.8384 19.3131 53.8169C19.1991 53.5163 19.1239 53.1996 19.0702 52.8789C19.2514 52.8561 19.4326 52.8225 19.6151 52.7796C19.8472 52.7259 20.0834 52.6575 20.3223 52.5783C21.746 52.3703 23.1457 51.8255 24.5332 51.38C24.7949 51.2954 25.0579 51.2149 25.3209 51.1397C27.3043 50.5654 29.3534 50.2246 31.4146 50.1145C33.7146 49.9924 36.0308 50.1588 38.2879 50.6124C38.4543 50.6459 38.614 50.6956 38.7764 50.7345Z" fill="#E5E5E5"/>
<path opacity="0.941" d="M38.7764 50.7351C38.8542 51.021 38.8918 51.3618 38.8958 51.7845C38.7643 51.755 38.8327 51.7738 38.7831 51.7657C38.6301 51.7402 38.4785 51.7053 38.3228 51.6852C37.5579 51.5873 36.7715 51.5215 35.9704 51.4826C34.4916 51.2719 33.0007 51.1994 31.5166 51.2612C30.4189 51.3054 29.3252 51.4235 28.2423 51.6114C27.0399 51.8194 25.851 52.1146 24.6862 52.4904C23.3255 52.9292 21.9554 53.4673 20.5638 53.733C20.1397 53.7826 19.7157 53.8028 19.2917 53.7867C19.2836 53.7652 19.2715 53.7451 19.2635 53.7236C19.1561 53.423 19.0877 53.1063 19.0421 52.7856C19.242 52.7762 19.4419 52.7561 19.6419 52.7265C19.8969 52.6903 20.1532 52.638 20.4095 52.5749C21.8212 52.3508 23.2074 51.8073 24.5855 51.3672C24.8459 51.284 25.1062 51.2048 25.3679 51.1297C27.3365 50.5634 29.3708 50.2265 31.4159 50.1192C33.716 49.9971 36.0321 50.1635 38.2893 50.617C38.4543 50.6466 38.614 50.6962 38.7764 50.7351Z" fill="#E5E5E5"/>
<path d="M38.7764 51.7537C38.614 51.7148 38.4543 51.6665 38.2893 51.6329C36.0308 51.1793 33.716 51.0129 31.4159 51.1351C29.1159 51.2572 26.8319 51.6665 24.6365 52.3669C22.8652 52.9319 21.0764 53.6606 19.242 53.6887C19.234 53.6673 19.2232 53.6471 19.2152 53.6257C19.1145 53.3251 19.0528 53.007 19.0139 52.6877C20.9288 52.7226 22.7914 51.9362 24.6365 51.3484C26.8319 50.6493 29.1159 50.2387 31.4159 50.1165C33.716 49.9944 36.0321 50.1608 38.2893 50.6144C38.4543 50.6479 38.6127 50.6962 38.7764 50.7352C38.8542 51.021 38.8918 51.3618 38.8958 51.7845C38.7563 51.7497 38.8287 51.7658 38.7764 51.7537Z" fill="#E5E5E5"/>
<path d="M118.346 27.9023C118.346 29.3997 118.126 30.6611 117.687 31.6865C117.247 32.7119 116.661 33.5583 115.929 34.2256C115.196 34.8929 114.358 35.4137 113.414 35.7881C112.47 36.1624 111.502 36.431 110.509 36.5938C111.762 37.0495 112.779 37.6273 113.561 38.3271C114.358 39.027 114.977 39.7594 115.416 40.5244C115.872 41.2731 116.181 42.0137 116.344 42.7461C116.507 43.4622 116.588 44.0645 116.588 44.5527C116.588 45.7734 116.409 46.8395 116.051 47.751C115.693 48.6624 115.204 49.4437 114.586 50.0947C113.984 50.7458 113.276 51.2829 112.462 51.7061C111.648 52.1292 110.777 52.471 109.85 52.7314C108.938 52.9756 107.994 53.1465 107.018 53.2441C106.057 53.3418 105.121 53.3906 104.21 53.3906C103.901 53.3906 103.583 53.3825 103.258 53.3662C102.949 53.3662 102.558 53.3499 102.086 53.3174C101.614 53.3011 101.02 53.2686 100.304 53.2197C99.6038 53.1709 98.7005 53.1058 97.5938 53.0244C96.487 52.943 95.1442 52.8454 93.5654 52.7314C91.9867 52.6012 90.0986 52.4548 87.9014 52.292L93.8096 48.6543L95.543 22.8486L89.1465 18.6982C92.1576 18.7308 94.7943 18.7633 97.0566 18.7959C99.3353 18.8285 101.256 18.861 102.818 18.8936C104.641 18.9261 106.204 18.9587 107.506 18.9912C108.775 18.9912 110.053 19.1865 111.339 19.5771C112.641 19.9515 113.805 20.513 114.83 21.2617C115.872 22.0104 116.718 22.9463 117.369 24.0693C118.02 25.1761 118.346 26.4538 118.346 27.9023ZM111.9 28.0488C111.9 27.9023 111.876 27.6501 111.827 27.292C111.795 26.9176 111.681 26.5026 111.485 26.0469C111.306 25.5749 111.021 25.0866 110.631 24.582C110.24 24.0612 109.695 23.5892 108.995 23.166C108.295 22.7428 107.408 22.3929 106.334 22.1162C105.276 21.8232 103.982 21.6686 102.452 21.6523C101.638 21.6523 100.841 21.7012 100.06 21.7988V35.2998C100.483 35.3324 100.906 35.3486 101.329 35.3486C101.752 35.3486 102.127 35.3486 102.452 35.3486C104.015 35.3486 105.333 35.194 106.407 34.8848C107.481 34.5755 108.368 34.1768 109.068 33.6885C109.768 33.2002 110.305 32.6712 110.68 32.1016C111.07 31.5156 111.355 30.9541 111.534 30.417C111.713 29.8636 111.819 29.3753 111.852 28.9521C111.884 28.529 111.9 28.2279 111.9 28.0488ZM102.599 37.9609C102.241 37.9609 101.834 37.9609 101.378 37.9609C100.922 37.9609 100.483 37.9772 100.06 38.0098V49.7529C100.792 49.8831 101.467 49.9727 102.086 50.0215C102.704 50.0703 103.323 50.0947 103.941 50.0947C104.771 50.0947 105.593 50.0052 106.407 49.8262C107.237 49.6309 107.978 49.3053 108.629 48.8496C109.296 48.3776 109.833 47.751 110.24 46.9697C110.647 46.1885 110.851 45.2119 110.851 44.04C110.851 43.4378 110.712 42.7786 110.436 42.0625C110.159 41.3464 109.703 40.6872 109.068 40.085C108.434 39.4827 107.587 38.9782 106.529 38.5713C105.471 38.1644 104.161 37.9609 102.599 37.9609ZM137.877 36.3496C137.73 35.7474 137.519 35.2347 137.242 34.8115C136.982 34.3883 136.681 34.0384 136.339 33.7617C136.013 33.4688 135.663 33.249 135.289 33.1025C134.915 32.9398 134.54 32.8177 134.166 32.7363C133.287 32.5573 132.351 32.5654 131.358 32.7607C131.017 32.8747 130.65 33.0537 130.26 33.2979C129.918 33.5257 129.527 33.835 129.088 34.2256C128.648 34.5999 128.176 35.1045 127.672 35.7393L128.111 49.8994L132.506 52.0967L119.566 53.2441L122.911 49.8506L124.278 32.8584L119.078 30.4902L127.477 28.9033L127.574 31.9551C128.144 31.2715 128.73 30.71 129.332 30.2705C129.934 29.8311 130.479 29.473 130.968 29.1963C131.537 28.887 132.091 28.651 132.628 28.4883C133.604 28.2604 134.597 28.1709 135.606 28.2197C136.03 28.236 136.469 28.2848 136.925 28.3662C137.397 28.4476 137.869 28.5778 138.341 28.7568C138.829 28.9196 139.301 29.1475 139.757 29.4404C140.213 29.7171 140.652 30.0671 141.075 30.4902L137.877 36.3496ZM163.023 37.79C163.023 38.6527 162.975 39.5804 162.877 40.5732C162.779 41.5661 162.633 42.5752 162.438 43.6006C162.258 44.626 162.039 45.6351 161.778 46.6279C161.534 47.6045 161.266 48.5078 160.973 49.3379L166.173 53L156.969 52.6094L157.53 49.6064C156.554 50.8271 155.423 51.763 154.137 52.4141C152.867 53.0488 151.394 53.4313 149.718 53.5615C148.351 53.6592 147.154 53.5615 146.129 53.2686C145.12 52.9919 144.273 52.5605 143.59 51.9746C142.923 51.3724 142.426 50.64 142.101 49.7773C141.775 48.8984 141.612 47.9219 141.612 46.8477C141.612 45.8548 141.856 44.8945 142.345 43.9668C142.833 43.0228 143.533 42.1927 144.444 41.4766C145.372 40.7604 146.503 40.1908 147.838 39.7676C149.173 39.3281 150.686 39.1084 152.379 39.1084C153.16 39.1084 154.055 39.1816 155.064 39.3281C156.09 39.4746 157.058 39.7839 157.97 40.2559C157.888 39.263 157.734 38.2539 157.506 37.2285C157.294 36.1868 156.977 35.2428 156.554 34.3965C156.131 33.5501 155.577 32.8665 154.894 32.3457C154.226 31.8086 153.388 31.54 152.379 31.54C151.516 31.54 150.678 31.7191 149.864 32.0771C149.05 32.4352 148.285 32.9479 147.569 33.6152C146.869 34.2826 146.235 35.0964 145.665 36.0566C145.095 37.0169 144.615 38.0993 144.225 39.3037L142.174 27.3408L145.274 32.1016C146.039 31.1576 146.812 30.4089 147.594 29.8555C148.375 29.2858 149.148 28.8545 149.913 28.5615C150.694 28.2523 151.443 28.0488 152.159 27.9512C152.892 27.8535 153.591 27.8047 154.259 27.8047C155.512 27.8698 156.668 28.1302 157.726 28.5859C158.8 29.0254 159.728 29.6683 160.509 30.5146C161.29 31.3447 161.9 32.3701 162.34 33.5908C162.796 34.8115 163.023 36.2113 163.023 37.79ZM157.97 45.6025C158.002 45.1468 158.027 44.7074 158.043 44.2842C158.059 43.861 158.067 43.446 158.067 43.0391V42.7461C157.481 42.5182 156.887 42.3473 156.285 42.2334C155.699 42.1032 155.154 42.0137 154.649 41.9648C154.145 41.8997 153.714 41.8672 153.355 41.8672C153.014 41.8509 152.786 41.8428 152.672 41.8428C151.744 41.8753 150.938 42.0462 150.255 42.3555C149.571 42.6647 149.002 43.0553 148.546 43.5273C148.106 43.9831 147.773 44.4958 147.545 45.0654C147.333 45.6351 147.228 46.1966 147.228 46.75C147.228 48.0033 147.529 48.9554 148.131 49.6064C148.749 50.2412 149.645 50.5586 150.816 50.5586C151.598 50.5586 152.338 50.4202 153.038 50.1436C153.738 49.8669 154.389 49.5007 154.991 49.0449C155.61 48.5729 156.163 48.0439 156.651 47.458C157.156 46.8558 157.595 46.2373 157.97 45.6025ZM166.71 53.2441L170.543 50.2412L169.713 33.3955L165.196 30.4414L175.694 28.6592L173.814 48.2393L179.063 51.5107L166.71 53.2441ZM175.963 22.751C175.963 23.2393 175.865 23.7031 175.67 24.1426C175.475 24.5658 175.206 24.9482 174.864 25.29C174.522 25.6156 174.132 25.876 173.692 26.0713C173.253 26.2503 172.789 26.3398 172.301 26.3398C171.78 26.3398 171.292 26.2503 170.836 26.0713C170.396 25.876 170.014 25.6156 169.688 25.29C169.363 24.9482 169.103 24.5658 168.907 24.1426C168.712 23.7031 168.614 23.2393 168.614 22.751C168.614 22.2464 168.712 21.7826 168.907 21.3594C169.103 20.9199 169.363 20.5374 169.688 20.2119C170.014 19.8864 170.396 19.6341 170.836 19.4551C171.292 19.2598 171.78 19.1621 172.301 19.1621C172.789 19.1621 173.253 19.2598 173.692 19.4551C174.132 19.6341 174.522 19.8864 174.864 20.2119C175.206 20.5374 175.475 20.9199 175.67 21.3594C175.865 21.7826 175.963 22.2464 175.963 22.751ZM202.159 37.8389C202.159 38.7503 202.118 39.7106 202.037 40.7197C201.956 41.7288 201.834 42.738 201.671 43.7471C201.508 44.7562 201.305 45.7409 201.061 46.7012C200.833 47.6615 200.564 48.5404 200.255 49.3379L205.064 50.9004L192.345 53.3906L196.666 50.1436C197.008 48.8903 197.236 47.6859 197.35 46.5303C197.48 45.3747 197.545 44.2842 197.545 43.2588C197.545 42.6403 197.521 41.9404 197.472 41.1592C197.439 40.3617 197.35 39.556 197.203 38.7422C197.073 37.9284 196.878 37.1309 196.617 36.3496C196.373 35.5684 196.048 34.8766 195.641 34.2744C195.234 33.6559 194.729 33.1676 194.127 32.8096C193.541 32.4352 192.833 32.248 192.003 32.248C191.043 32.248 190.066 32.5654 189.073 33.2002C188.08 33.835 187.161 34.7708 186.314 36.0078V49.5088L190.343 52.3896L178.258 53.2441L181.456 49.7041L183.165 31.9551L177.965 29.3916L186.314 28.5615V32.248C186.786 31.597 187.307 30.9867 187.877 30.417C188.447 29.8473 189.049 29.359 189.684 28.9521C190.318 28.529 190.978 28.2035 191.661 27.9756C192.361 27.7314 193.077 27.6094 193.81 27.6094C195.226 27.6094 196.454 27.8698 197.496 28.3906C198.538 28.9115 199.4 29.6357 200.084 30.5635C200.784 31.4749 201.305 32.5573 201.646 33.8105C201.988 35.0475 202.159 36.3903 202.159 37.8389ZM234.215 27.9023C234.215 29.3997 233.995 30.6611 233.556 31.6865C233.116 32.7119 232.53 33.5583 231.798 34.2256C231.065 34.8929 230.227 35.4137 229.283 35.7881C228.339 36.1624 227.371 36.431 226.378 36.5938C227.631 37.0495 228.648 37.6273 229.43 38.3271C230.227 39.027 230.846 39.7594 231.285 40.5244C231.741 41.2731 232.05 42.0137 232.213 42.7461C232.376 43.4622 232.457 44.0645 232.457 44.5527C232.457 45.7734 232.278 46.8395 231.92 47.751C231.562 48.6624 231.074 49.4437 230.455 50.0947C229.853 50.7458 229.145 51.2829 228.331 51.7061C227.517 52.1292 226.646 52.471 225.719 52.7314C224.807 52.9756 223.863 53.1465 222.887 53.2441C221.926 53.3418 220.991 53.3906 220.079 53.3906C219.77 53.3906 219.452 53.3825 219.127 53.3662C218.818 53.3662 218.427 53.3499 217.955 53.3174C217.483 53.3011 216.889 53.2686 216.173 53.2197C215.473 53.1709 214.57 53.1058 213.463 53.0244C212.356 52.943 211.013 52.8454 209.435 52.7314C207.856 52.6012 205.968 52.4548 203.771 52.292L209.679 48.6543L211.412 22.8486L205.016 18.6982C208.027 18.7308 210.663 18.7633 212.926 18.7959C215.204 18.8285 217.125 18.861 218.688 18.8936C220.51 18.9261 222.073 18.9587 223.375 18.9912C224.645 18.9912 225.922 19.1865 227.208 19.5771C228.51 19.9515 229.674 20.513 230.699 21.2617C231.741 22.0104 232.587 22.9463 233.238 24.0693C233.889 25.1761 234.215 26.4538 234.215 27.9023ZM227.77 28.0488C227.77 27.9023 227.745 27.6501 227.696 27.292C227.664 26.9176 227.55 26.5026 227.354 26.0469C227.175 25.5749 226.891 25.0866 226.5 24.582C226.109 24.0612 225.564 23.5892 224.864 23.166C224.164 22.7428 223.277 22.3929 222.203 22.1162C221.145 21.8232 219.851 21.6686 218.321 21.6523C217.507 21.6523 216.71 21.7012 215.929 21.7988V35.2998C216.352 35.3324 216.775 35.3486 217.198 35.3486C217.621 35.3486 217.996 35.3486 218.321 35.3486C219.884 35.3486 221.202 35.194 222.276 34.8848C223.351 34.5755 224.238 34.1768 224.938 33.6885C225.637 33.2002 226.174 32.6712 226.549 32.1016C226.939 31.5156 227.224 30.9541 227.403 30.417C227.582 29.8636 227.688 29.3753 227.721 28.9521C227.753 28.529 227.77 28.2279 227.77 28.0488ZM218.468 37.9609C218.11 37.9609 217.703 37.9609 217.247 37.9609C216.791 37.9609 216.352 37.9772 215.929 38.0098V49.7529C216.661 49.8831 217.337 49.9727 217.955 50.0215C218.574 50.0703 219.192 50.0947 219.811 50.0947C220.641 50.0947 221.463 50.0052 222.276 49.8262C223.106 49.6309 223.847 49.3053 224.498 48.8496C225.165 48.3776 225.702 47.751 226.109 46.9697C226.516 46.1885 226.72 45.2119 226.72 44.04C226.72 43.4378 226.581 42.7786 226.305 42.0625C226.028 41.3464 225.572 40.6872 224.938 40.085C224.303 39.4827 223.456 38.9782 222.398 38.5713C221.34 38.1644 220.03 37.9609 218.468 37.9609ZM236.485 40.7441C236.485 38.9212 236.77 37.2367 237.34 35.6904C237.926 34.1279 238.731 32.777 239.757 31.6377C240.799 30.4984 242.027 29.6113 243.443 28.9766C244.876 28.3255 246.438 28 248.131 28C249.775 28 251.28 28.3092 252.647 28.9277C254.015 29.5299 255.203 30.3844 256.212 31.4912C257.221 32.598 258.027 33.9245 258.629 35.4707C259.231 37.0169 259.589 38.7259 259.703 40.5977C259.817 42.5996 259.605 44.4144 259.068 46.042C258.548 47.6533 257.774 49.0286 256.749 50.168C255.724 51.291 254.495 52.1618 253.062 52.7803C251.646 53.3988 250.108 53.708 248.448 53.708C246.853 53.708 245.331 53.4232 243.883 52.8535C242.451 52.2676 241.181 51.4212 240.074 50.3145C238.984 49.2077 238.113 47.8568 237.462 46.2617C236.811 44.6504 236.485 42.8112 236.485 40.7441ZM242.491 41.1592C242.491 42.5915 242.695 43.8854 243.102 45.041C243.508 46.1966 244.054 47.1813 244.737 47.9951C245.421 48.7926 246.21 49.4111 247.105 49.8506C248.001 50.29 248.945 50.5098 249.938 50.5098C250.93 50.5098 251.858 50.2982 252.721 49.875C253.583 49.4355 254.332 48.8252 254.967 48.0439C255.602 47.2464 256.098 46.2943 256.456 45.1875C256.814 44.0807 256.993 42.8519 256.993 41.501C256.993 40.1663 256.814 38.9131 256.456 37.7412C256.098 36.5531 255.593 35.5195 254.942 34.6406C254.308 33.7617 253.551 33.07 252.672 32.5654C251.793 32.0609 250.833 31.8086 249.791 31.8086C248.863 31.8086 247.96 32.0202 247.081 32.4434C246.218 32.8665 245.445 33.485 244.762 34.2988C244.078 35.0964 243.525 36.0729 243.102 37.2285C242.695 38.3841 242.491 39.6943 242.491 41.1592ZM288.243 30.2949L283.385 32.2969C282.262 33.8268 281.114 35.3486 279.942 36.8623C278.787 38.3597 277.599 39.8245 276.378 41.2568C277.338 42.6403 278.315 43.9993 279.308 45.334C280.3 46.6686 281.326 47.987 282.384 49.2891L287.73 50.7539L277.647 53.8545L279.894 50.4121C278.819 49.403 277.778 48.3857 276.769 47.3604C275.759 46.335 274.767 45.2852 273.79 44.2109C272.862 45.2363 271.918 46.221 270.958 47.165C270.014 48.109 269.054 49.0205 268.077 49.8994L269.737 53L259.581 52.4385L265.831 48.8984C267.784 46.6198 269.672 44.2028 271.495 41.6475C270.079 39.9873 268.704 38.3271 267.369 36.667C266.051 35.0068 264.757 33.3385 263.487 31.6621L259.63 30.0508L271.983 28.1953L269.737 30.71C270.421 31.8818 271.121 33.0618 271.837 34.25C272.553 35.4382 273.302 36.6344 274.083 37.8389C274.848 36.6833 275.564 35.5358 276.231 34.3965C276.915 33.2409 277.582 32.0609 278.233 30.8564L275.426 28.5615L288.243 30.2949Z" fill="#431C94"/>
<defs>
<filter id="filter0_d" x="0" y="0" width="82.3219" height="82.3219" filterUnits="userSpaceOnUse" color-interpolation-filters="sRGB">
<feFlood flood-opacity="0" result="BackgroundImageFix"/>
<feColorMatrix in="SourceAlpha" type="matrix" values="0 0 0 0 0 0 0 0 0 0 0 0 0 0 0 0 0 0 127 0"/>
<feOffset dy="4"/>
<feGaussianBlur stdDeviation="2"/>
<feColorMatrix type="matrix" values="0 0 0 0 0 0 0 0 0 0 0 0 0 0 0 0 0 0 0.25 0"/>
<feBlend mode="normal" in2="BackgroundImageFix" result="effect1_dropShadow"/>
<feBlend mode="normal" in="SourceGraphic" in2="effect1_dropShadow" result="shape"/>
</filter>
</defs>
</svg>
