<svg width="384" height="395" viewBox="0 0 384 395" fill="none" xmlns="http://www.w3.org/2000/svg">
<path d="M259 27L191.662 2.3642C191.018 2.12854 190.313 2.12072 189.663 2.34203L117.333 27L139 31.9242M259 27V78.6667M259 27L239 31.1667M259 78.6667L247.333 98.6667H267.333L259 78.6667ZM239 31.1667L219.446 35.2405C219.152 35.3016 218.877 35.4278 218.639 35.6098L191.257 56.5485C190.907 56.8165 190.422 56.8232 190.064 56.5648L161.054 35.6133C160.8 35.4293 160.505 35.3079 160.194 35.259L139 31.9242M239 31.1667V72L218.284 77.179C214.38 78.1551 210.783 80.0974 207.826 82.8271L191.32 98.0633C190.948 98.4073 190.376 98.4178 189.991 98.0877L171.769 82.4685C168.854 79.9704 165.383 78.2078 161.647 77.3286L139 72V31.9242" stroke="#D0D0D0" stroke-width="4"/>
<path d="M130.667 120.333V245.333V246.181C130.667 247.773 131.299 249.299 132.424 250.424L134 252L135.869 253.869C136.807 254.807 138.078 255.333 139.404 255.333H247.333V132M247.333 132L140.667 130.333L137.333 128.667L134 125.333L131.114 119.561C130.832 118.998 130.832 118.335 131.114 117.772L132.333 115.333L134 112L136.162 109.838C136.912 109.088 137.929 108.667 138.99 108.667H247.333L240.667 112L235.667 115.333L234 118.667V122L235.667 125.333L239 128.667L240.667 130.333L247.333 132Z" stroke="#70A9D2" stroke-width="4"/>
<path d="M142.333 122H227.333" stroke="#70A9D2" stroke-width="4"/>
<path d="M119 270.333H102.333L98.0052 268.891C97.5634 268.743 97.1619 268.495 96.8326 268.166L94 265.333L90.4645 261.798C89.5268 260.86 89 259.588 89 258.262V160.333V155.805C89 155.495 89.0723 155.189 89.2111 154.911L90.6667 152L93.4992 149.167C93.8285 148.838 94.23 148.59 94.6719 148.443L98.5381 147.154C98.844 147.052 99.1644 147 99.4868 147H119M119 270.333V147M119 270.333H265.667M119 147H122.333H125.667H119ZM265.667 270.333V147M265.667 270.333H278.056C278.677 270.333 279.289 270.189 279.845 269.911L282.333 268.667L285.667 265.333L288.16 261.593C288.708 260.772 289 259.807 289 258.819V156.042C289 155.576 288.892 155.116 288.683 154.7L287.551 152.435C287.407 152.147 287.217 151.884 286.989 151.656L283.798 148.464C282.86 147.527 281.588 147 280.262 147H265.667M265.667 147H255.667M277.333 193.667V195.333V220.333" stroke="#CCCCCC" stroke-width="4"/>
<path d="M105.667 190.333V222" stroke="#CCCCCC" stroke-width="4"/>
<g style="mix-blend-mode:darken">
<path d="M10.752 333.734L8.00977 336.688V344H2.73633V318.406H8.00977V330.008L10.3301 326.826L16.8516 318.406H23.3379L14.25 329.779L23.6016 344H17.3262L10.752 333.734ZM35.0625 334.631H30.8613V344H25.5879V318.406H35.0977C38.1211 318.406 40.4531 319.08 42.0938 320.428C43.7344 321.775 44.5547 323.68 44.5547 326.141C44.5547 327.887 44.1738 329.346 43.4121 330.518C42.6621 331.678 41.5195 332.604 39.9844 333.295L45.5215 343.754V344H39.8613L35.0625 334.631ZM30.8613 330.359H35.1152C36.4395 330.359 37.4648 330.025 38.1914 329.357C38.918 328.678 39.2812 327.746 39.2812 326.562C39.2812 325.355 38.9355 324.406 38.2441 323.715C37.5645 323.023 36.5156 322.678 35.0977 322.678H30.8613V330.359ZM69.6035 331.783C69.6035 334.303 69.1582 336.512 68.2676 338.41C67.377 340.309 66.0996 341.773 64.4355 342.805C62.7832 343.836 60.8848 344.352 58.7402 344.352C56.6191 344.352 54.7266 343.842 53.0625 342.822C51.3984 341.803 50.1094 340.35 49.1953 338.463C48.2812 336.564 47.8184 334.385 47.8066 331.924V330.658C47.8066 328.139 48.2578 325.924 49.1602 324.014C50.0742 322.092 51.3574 320.621 53.0098 319.602C54.6738 318.57 56.5723 318.055 58.7051 318.055C60.8379 318.055 62.7305 318.57 64.3828 319.602C66.0469 320.621 67.3301 322.092 68.2324 324.014C69.1465 325.924 69.6035 328.133 69.6035 330.641V331.783ZM64.2598 330.623C64.2598 327.939 63.7793 325.9 62.8184 324.506C61.8574 323.111 60.4863 322.414 58.7051 322.414C56.9355 322.414 55.5703 323.105 54.6094 324.488C53.6484 325.859 53.1621 327.875 53.1504 330.535V331.783C53.1504 334.396 53.6309 336.424 54.5918 337.865C55.5527 339.307 56.9355 340.027 58.7402 340.027C60.5098 340.027 61.8691 339.336 62.8184 337.953C63.7676 336.559 64.248 334.531 64.2598 331.871V330.623ZM80.3262 318.406L86.9004 336.969L93.4395 318.406H100.365V344H95.0742V337.004L95.6016 324.928L88.6934 344H85.0723L78.1816 324.945L78.709 337.004V344H73.4355V318.406H80.3262ZM123.709 322.678H115.869V344H110.596V322.678H102.861V318.406H123.709V322.678ZM142.131 332.908H132.006V339.764H143.889V344H126.732V318.406H143.854V322.678H132.006V328.777H142.131V332.908ZM167.074 335.475C166.875 338.229 165.855 340.396 164.016 341.979C162.188 343.561 159.773 344.352 156.773 344.352C153.492 344.352 150.908 343.25 149.021 341.047C147.146 338.832 146.209 335.797 146.209 331.941V330.377C146.209 327.916 146.643 325.748 147.51 323.873C148.377 321.998 149.613 320.562 151.219 319.566C152.836 318.559 154.711 318.055 156.844 318.055C159.797 318.055 162.176 318.846 163.98 320.428C165.785 322.01 166.828 324.23 167.109 327.09H161.836C161.707 325.438 161.244 324.242 160.447 323.504C159.662 322.754 158.461 322.379 156.844 322.379C155.086 322.379 153.768 323.012 152.889 324.277C152.021 325.531 151.576 327.482 151.553 330.131V332.064C151.553 334.83 151.969 336.852 152.801 338.129C153.645 339.406 154.969 340.045 156.773 340.045C158.402 340.045 159.615 339.676 160.412 338.938C161.221 338.188 161.684 337.033 161.801 335.475H167.074ZM191.367 344H186.094V333.031H175.811V344H170.537V318.406H175.811V328.777H186.094V318.406H191.367V344ZM219.404 338.727H210.158L208.4 344H202.793L212.32 318.406H217.207L226.787 344H221.18L219.404 338.727ZM211.582 334.455H217.98L214.764 324.875L211.582 334.455ZM248.883 335.475C248.684 338.229 247.664 340.396 245.824 341.979C243.996 343.561 241.582 344.352 238.582 344.352C235.301 344.352 232.717 343.25 230.83 341.047C228.955 338.832 228.018 335.797 228.018 331.941V330.377C228.018 327.916 228.451 325.748 229.318 323.873C230.186 321.998 231.422 320.562 233.027 319.566C234.645 318.559 236.52 318.055 238.652 318.055C241.605 318.055 243.984 318.846 245.789 320.428C247.594 322.01 248.637 324.23 248.918 327.09H243.645C243.516 325.438 243.053 324.242 242.256 323.504C241.471 322.754 240.27 322.379 238.652 322.379C236.895 322.379 235.576 323.012 234.697 324.277C233.83 325.531 233.385 327.482 233.361 330.131V332.064C233.361 334.83 233.777 336.852 234.609 338.129C235.453 339.406 236.777 340.045 238.582 340.045C240.211 340.045 241.424 339.676 242.221 338.938C243.029 338.188 243.492 337.033 243.609 335.475H248.883ZM266.795 338.727H257.549L255.791 344H250.184L259.711 318.406H264.598L274.178 344H268.57L266.795 338.727ZM258.973 334.455H265.371L262.154 324.875L258.973 334.455ZM276.568 344V318.406H284.443C286.693 318.406 288.703 318.916 290.473 319.936C292.254 320.943 293.643 322.385 294.639 324.26C295.635 326.123 296.133 328.244 296.133 330.623V331.801C296.133 334.18 295.641 336.295 294.656 338.146C293.684 339.998 292.307 341.434 290.525 342.453C288.744 343.473 286.734 343.988 284.496 344H276.568ZM281.842 322.678V339.764H284.391C286.453 339.764 288.029 339.09 289.119 337.742C290.209 336.395 290.766 334.467 290.789 331.959V330.605C290.789 328.004 290.25 326.035 289.172 324.699C288.094 323.352 286.518 322.678 284.443 322.678H281.842ZM315.381 332.908H305.256V339.764H317.139V344H299.982V318.406H317.104V322.678H305.256V328.777H315.381V332.908ZM327.123 318.406L333.697 336.969L340.236 318.406H347.162V344H341.871V337.004L342.398 324.928L335.49 344H331.869L324.979 324.945L325.506 337.004V344H320.232V318.406H327.123ZM357.375 344H352.102V318.406H357.375V344ZM382.371 335.475C382.172 338.229 381.152 340.396 379.312 341.979C377.484 343.561 375.07 344.352 372.07 344.352C368.789 344.352 366.205 343.25 364.318 341.047C362.443 338.832 361.506 335.797 361.506 331.941V330.377C361.506 327.916 361.939 325.748 362.807 323.873C363.674 321.998 364.91 320.562 366.516 319.566C368.133 318.559 370.008 318.055 372.141 318.055C375.094 318.055 377.473 318.846 379.277 320.428C381.082 322.01 382.125 324.23 382.406 327.09H377.133C377.004 325.438 376.541 324.242 375.744 323.504C374.959 322.754 373.758 322.379 372.141 322.379C370.383 322.379 369.064 323.012 368.186 324.277C367.318 325.531 366.873 327.482 366.85 330.131V332.064C366.85 334.83 367.266 336.852 368.098 338.129C368.941 339.406 370.266 340.045 372.07 340.045C373.699 340.045 374.912 339.676 375.709 338.938C376.518 338.188 376.98 337.033 377.098 335.475H382.371ZM133.465 380.727H124.219L122.461 386H116.854L126.381 360.406H131.268L140.848 386H135.24L133.465 380.727ZM125.643 376.455H132.041L128.824 366.875L125.643 376.455ZM152.713 376.631H148.512V386H143.238V360.406H152.748C155.771 360.406 158.104 361.08 159.744 362.428C161.385 363.775 162.205 365.68 162.205 368.141C162.205 369.887 161.824 371.346 161.062 372.518C160.312 373.678 159.17 374.604 157.635 375.295L163.172 385.754V386H157.512L152.713 376.631ZM148.512 372.359H152.766C154.09 372.359 155.115 372.025 155.842 371.357C156.568 370.678 156.932 369.746 156.932 368.562C156.932 367.355 156.586 366.406 155.895 365.715C155.215 365.023 154.166 364.678 152.748 364.678H148.512V372.359ZM186.322 377.475C186.123 380.229 185.104 382.396 183.264 383.979C181.436 385.561 179.021 386.352 176.021 386.352C172.74 386.352 170.156 385.25 168.27 383.047C166.395 380.832 165.457 377.797 165.457 373.941V372.377C165.457 369.916 165.891 367.748 166.758 365.873C167.625 363.998 168.861 362.562 170.467 361.566C172.084 360.559 173.959 360.055 176.092 360.055C179.045 360.055 181.424 360.846 183.229 362.428C185.033 364.01 186.076 366.23 186.357 369.09H181.084C180.955 367.438 180.492 366.242 179.695 365.504C178.91 364.754 177.709 364.379 176.092 364.379C174.334 364.379 173.016 365.012 172.137 366.277C171.27 367.531 170.824 369.482 170.801 372.131V374.064C170.801 376.83 171.217 378.852 172.049 380.129C172.893 381.406 174.217 382.045 176.021 382.045C177.65 382.045 178.863 381.676 179.66 380.938C180.469 380.188 180.932 379.033 181.049 377.475H186.322ZM210.615 386H205.342V375.031H195.059V386H189.785V360.406H195.059V370.777H205.342V360.406H210.615V386ZM220.846 386H215.572V360.406H220.846V386ZM235.207 379.654L241.008 360.406H246.879L237.967 386H232.465L223.588 360.406H229.441L235.207 379.654ZM264.703 374.908H254.578V381.764H266.461V386H249.305V360.406H266.426V364.678H254.578V370.777H264.703V374.908Z" fill="#236392"/>
</g>
</svg>
