<svg xmlns="http://www.w3.org/2000/svg" x="0px" y="0px"
width="64" height="64"
viewBox="0 0 172 172"
style=" fill:#000000;"><g transform="translate(19.78,19.78) scale(0.77,0.77)"><g fill="none" fill-rule="nonzero" stroke="none" stroke-width="1" stroke-linecap="butt" stroke-linejoin="miter" stroke-miterlimit="10" stroke-dasharray="" stroke-dashoffset="0" font-family="none" font-weight="none" font-size="none" text-anchor="none" style="mix-blend-mode: normal"><path d="M0,172v-172h172v172z" fill="none" stroke="none"></path><g stroke="none"><path d="M24.1875,26.875h59.125v129h-59.125z" fill="#85cbf8"></path><path d="M64.5,26.875h18.8125v129h-18.8125z" fill="#7bbeeb"></path><path d="M24.1875,26.875h18.8125v129h-18.8125z" fill="#ace3ff"></path><path d="M83.3125,59.125h64.5v96.75h-64.5z" fill="#85cbf8"></path><path d="M24.1875,16.125h59.125c2.96969,0 5.375,2.40531 5.375,5.375v0c0,2.96969 -2.40531,5.375 -5.375,5.375h-59.125c-2.96969,0 -5.375,-2.40531 -5.375,-5.375v0c0,-2.96969 2.40531,-5.375 5.375,-5.375zM88.6875,48.375h59.125c2.96969,0 5.375,2.40531 5.375,5.375v0c0,2.96969 -2.40531,5.375 -5.375,5.375h-59.125c-2.96969,0 -5.375,-2.40531 -5.375,-5.375v0c0,-2.96969 2.40531,-5.375 5.375,-5.375z" fill="#f9dd8f"></path><path d="M24.1875,139.75h59.125v16.125h-59.125z" fill="#f283a5"></path><path d="M45.6875,134.375h16.125v21.5h-16.125z" fill="#fdeedd"></path><path d="M61.8125,40.3125h10.75c1.4835,0 2.6875,-1.204 2.6875,-2.6875c0,-1.4835 -1.204,-2.6875 -2.6875,-2.6875h-10.75c-1.4835,0 -2.6875,1.204 -2.6875,2.6875c0,1.4835 1.204,2.6875 2.6875,2.6875z" fill="#986ca1"></path><path d="M45.6875,67.1875h-5.375c-1.4835,0 -2.6875,1.204 -2.6875,2.6875c0,1.4835 1.204,2.6875 2.6875,2.6875h5.375c1.4835,0 2.6875,-1.204 2.6875,-2.6875c0,-1.4835 -1.204,-2.6875 -2.6875,-2.6875zM45.6875,45.6875h-5.375c-1.4835,0 -2.6875,1.204 -2.6875,2.6875c0,1.4835 1.204,2.6875 2.6875,2.6875h5.375c1.4835,0 2.6875,-1.204 2.6875,-2.6875c0,-1.4835 -1.204,-2.6875 -2.6875,-2.6875zM45.6875,56.4375h-5.375c-1.4835,0 -2.6875,1.204 -2.6875,2.6875c0,1.4835 1.204,2.6875 2.6875,2.6875h5.375c1.4835,0 2.6875,-1.204 2.6875,-2.6875c0,-1.4835 -1.204,-2.6875 -2.6875,-2.6875zM67.1875,67.1875h-5.375c-1.4835,0 -2.6875,1.204 -2.6875,2.6875c0,1.4835 1.204,2.6875 2.6875,2.6875h5.375c1.4835,0 2.6875,-1.204 2.6875,-2.6875c0,-1.4835 -1.204,-2.6875 -2.6875,-2.6875zM67.1875,45.6875h-5.375c-1.4835,0 -2.6875,1.204 -2.6875,2.6875c0,1.4835 1.204,2.6875 2.6875,2.6875h5.375c1.4835,0 2.6875,-1.204 2.6875,-2.6875c0,-1.4835 -1.204,-2.6875 -2.6875,-2.6875zM67.1875,56.4375h-5.375c-1.4835,0 -2.6875,1.204 -2.6875,2.6875c0,1.4835 1.204,2.6875 2.6875,2.6875h5.375c1.4835,0 2.6875,-1.204 2.6875,-2.6875c0,-1.4835 -1.204,-2.6875 -2.6875,-2.6875zM45.6875,99.4375h-5.375c-1.4835,0 -2.6875,1.204 -2.6875,2.6875c0,1.4835 1.204,2.6875 2.6875,2.6875h5.375c1.4835,0 2.6875,-1.204 2.6875,-2.6875c0,-1.4835 -1.204,-2.6875 -2.6875,-2.6875zM45.6875,77.9375h-5.375c-1.4835,0 -2.6875,1.204 -2.6875,2.6875c0,1.4835 1.204,2.6875 2.6875,2.6875h5.375c1.4835,0 2.6875,-1.204 2.6875,-2.6875c0,-1.4835 -1.204,-2.6875 -2.6875,-2.6875zM45.6875,88.6875h-5.375c-1.4835,0 -2.6875,1.204 -2.6875,2.6875c0,1.4835 1.204,2.6875 2.6875,2.6875h5.375c1.4835,0 2.6875,-1.204 2.6875,-2.6875c0,-1.4835 -1.204,-2.6875 -2.6875,-2.6875zM67.1875,99.4375h-5.375c-1.4835,0 -2.6875,1.204 -2.6875,2.6875c0,1.4835 1.204,2.6875 2.6875,2.6875h5.375c1.4835,0 2.6875,-1.204 2.6875,-2.6875c0,-1.4835 -1.204,-2.6875 -2.6875,-2.6875zM67.1875,77.9375h-5.375c-1.4835,0 -2.6875,1.204 -2.6875,2.6875c0,1.4835 1.204,2.6875 2.6875,2.6875h5.375c1.4835,0 2.6875,-1.204 2.6875,-2.6875c0,-1.4835 -1.204,-2.6875 -2.6875,-2.6875zM67.1875,88.6875h-5.375c-1.4835,0 -2.6875,1.204 -2.6875,2.6875c0,1.4835 1.204,2.6875 2.6875,2.6875h5.375c1.4835,0 2.6875,-1.204 2.6875,-2.6875c0,-1.4835 -1.204,-2.6875 -2.6875,-2.6875zM110.1875,83.3125h-5.375c-1.4835,0 -2.6875,1.204 -2.6875,2.6875c0,1.4835 1.204,2.6875 2.6875,2.6875h5.375c1.4835,0 2.6875,-1.204 2.6875,-2.6875c0,-1.4835 -1.204,-2.6875 -2.6875,-2.6875zM110.1875,72.5625h-5.375c-1.4835,0 -2.6875,1.204 -2.6875,2.6875c0,1.4835 1.204,2.6875 2.6875,2.6875h5.375c1.4835,0 2.6875,-1.204 2.6875,-2.6875c0,-1.4835 -1.204,-2.6875 -2.6875,-2.6875zM110.1875,115.5625h-5.375c-1.4835,0 -2.6875,1.204 -2.6875,2.6875c0,1.4835 1.204,2.6875 2.6875,2.6875h5.375c1.4835,0 2.6875,-1.204 2.6875,-2.6875c0,-1.4835 -1.204,-2.6875 -2.6875,-2.6875zM110.1875,94.0625h-5.375c-1.4835,0 -2.6875,1.204 -2.6875,2.6875c0,1.4835 1.204,2.6875 2.6875,2.6875h5.375c1.4835,0 2.6875,-1.204 2.6875,-2.6875c0,-1.4835 -1.204,-2.6875 -2.6875,-2.6875zM110.1875,104.8125h-5.375c-1.4835,0 -2.6875,1.204 -2.6875,2.6875c0,1.4835 1.204,2.6875 2.6875,2.6875h5.375c1.4835,0 2.6875,-1.204 2.6875,-2.6875c0,-1.4835 -1.204,-2.6875 -2.6875,-2.6875zM131.6875,83.3125h-5.375c-1.4835,0 -2.6875,1.204 -2.6875,2.6875c0,1.4835 1.204,2.6875 2.6875,2.6875h5.375c1.4835,0 2.6875,-1.204 2.6875,-2.6875c0,-1.4835 -1.204,-2.6875 -2.6875,-2.6875zM131.6875,72.5625h-5.375c-1.4835,0 -2.6875,1.204 -2.6875,2.6875c0,1.4835 1.204,2.6875 2.6875,2.6875h5.375c1.4835,0 2.6875,-1.204 2.6875,-2.6875c0,-1.4835 -1.204,-2.6875 -2.6875,-2.6875zM131.6875,115.5625h-5.375c-1.4835,0 -2.6875,1.204 -2.6875,2.6875c0,1.4835 1.204,2.6875 2.6875,2.6875h5.375c1.4835,0 2.6875,-1.204 2.6875,-2.6875c0,-1.4835 -1.204,-2.6875 -2.6875,-2.6875zM131.6875,94.0625h-5.375c-1.4835,0 -2.6875,1.204 -2.6875,2.6875c0,1.4835 1.204,2.6875 2.6875,2.6875h5.375c1.4835,0 2.6875,-1.204 2.6875,-2.6875c0,-1.4835 -1.204,-2.6875 -2.6875,-2.6875zM131.6875,104.8125h-5.375c-1.4835,0 -2.6875,1.204 -2.6875,2.6875c0,1.4835 1.204,2.6875 2.6875,2.6875h5.375c1.4835,0 2.6875,-1.204 2.6875,-2.6875c0,-1.4835 -1.204,-2.6875 -2.6875,-2.6875zM126.3125,142.4375h5.375c1.4835,0 2.6875,-1.204 2.6875,-2.6875c0,-1.4835 -1.204,-2.6875 -2.6875,-2.6875h-5.375c-1.4835,0 -2.6875,1.204 -2.6875,2.6875c0,1.4835 1.204,2.6875 2.6875,2.6875zM126.3125,131.6875h5.375c1.4835,0 2.6875,-1.204 2.6875,-2.6875c0,-1.4835 -1.204,-2.6875 -2.6875,-2.6875h-5.375c-1.4835,0 -2.6875,1.204 -2.6875,2.6875c0,1.4835 1.204,2.6875 2.6875,2.6875zM104.8125,142.4375h5.375c1.4835,0 2.6875,-1.204 2.6875,-2.6875c0,-1.4835 -1.204,-2.6875 -2.6875,-2.6875h-5.375c-1.4835,0 -2.6875,1.204 -2.6875,2.6875c0,1.4835 1.204,2.6875 2.6875,2.6875zM104.8125,131.6875h5.375c1.4835,0 2.6875,-1.204 2.6875,-2.6875c0,-1.4835 -1.204,-2.6875 -2.6875,-2.6875h-5.375c-1.4835,0 -2.6875,1.204 -2.6875,2.6875c0,1.4835 1.204,2.6875 2.6875,2.6875zM45.6875,110.1875h-5.375c-1.4835,0 -2.6875,1.204 -2.6875,2.6875c0,1.4835 1.204,2.6875 2.6875,2.6875h5.375c1.4835,0 2.6875,-1.204 2.6875,-2.6875c0,-1.4835 -1.204,-2.6875 -2.6875,-2.6875zM45.6875,120.9375h-5.375c-1.4835,0 -2.6875,1.204 -2.6875,2.6875c0,1.4835 1.204,2.6875 2.6875,2.6875h5.375c1.4835,0 2.6875,-1.204 2.6875,-2.6875c0,-1.4835 -1.204,-2.6875 -2.6875,-2.6875zM67.1875,110.1875h-5.375c-1.4835,0 -2.6875,1.204 -2.6875,2.6875c0,1.4835 1.204,2.6875 2.6875,2.6875h5.375c1.4835,0 2.6875,-1.204 2.6875,-2.6875c0,-1.4835 -1.204,-2.6875 -2.6875,-2.6875zM67.1875,120.9375h-5.375c-1.4835,0 -2.6875,1.204 -2.6875,2.6875c0,1.4835 1.204,2.6875 2.6875,2.6875h5.375c1.4835,0 2.6875,-1.204 2.6875,-2.6875c0,-1.4835 -1.204,-2.6875 -2.6875,-2.6875z" fill="#8d6c9f"></path><g fill="#8d6c9f"><path d="M158.5625,153.1875h-72.5625v-124.10875c4.18444,-1.51844 6.34788,-6.14362 4.82944,-10.32806c-1.15025,-3.16856 -4.14681,-5.28631 -7.51694,-5.31319h-16.125h-8.0625h-5.375h16.125h-5.375h-5.375h-34.9375c-4.45319,0.03494 -8.03562,3.67113 -8.00069,8.12431c0.02688,3.37012 2.14463,6.36669 5.31319,7.51694v124.10875h-8.0625c-1.4835,0 -2.6875,1.204 -2.6875,2.6875c0,1.4835 1.204,2.6875 2.6875,2.6875h145.125c1.4835,0 2.6875,-1.204 2.6875,-2.6875c0,-1.4835 -1.204,-2.6875 -2.6875,-2.6875zM80.625,129v8.0625v5.375v10.75h-16.125h-5.375h10.75h-5.375h-37.625v-10.75v-5.375v-8.0625v-88.6875h24.1875c1.4835,0 2.6875,-1.204 2.6875,-2.6875c0,-1.4835 -1.204,-2.6875 -2.6875,-2.6875h-24.1875v-5.375h53.75zM83.3125,24.1875h-59.125c-1.4835,0 -2.6875,-1.204 -2.6875,-2.6875c0,-1.4835 1.204,-2.6875 2.6875,-2.6875h59.125c1.4835,0 2.6875,1.204 2.6875,2.6875c0,1.4835 -1.204,2.6875 -2.6875,2.6875z"></path></g><g fill="#8d6c9f"><path d="M61.8125,137.0625h21.5v5.375h-21.5z"></path></g><g fill="#8d6c9f"><path d="M24.1875,137.0625h21.5v5.375h-21.5z"></path></g><g fill="#8d6c9f"><path d="M59.125,158.5625h-10.75c-2.96431,0 -5.375,-2.41069 -5.375,-5.375v-16.125c0,-2.96431 2.41069,-5.375 5.375,-5.375h10.75c2.96431,0 5.375,2.41069 5.375,5.375v16.125c0,2.96431 -2.41069,5.375 -5.375,5.375zM48.375,137.0625v16.125h10.75269l-0.00269,-16.125z"></path></g><g fill="#8d6c9f"><path d="M83.3125,51.0625h64.5c1.4835,0 2.6875,1.204 2.6875,2.6875c0,1.4835 -1.204,2.6875 -2.6875,2.6875h-64.5v5.375c0,0 59.125,0 61.8125,0c2.6875,0 5.375,-0.48375 5.375,-0.48375c4.18444,-1.51844 6.34788,-6.14362 4.82944,-10.32806c-1.15025,-3.16856 -4.14681,-5.28631 -7.51694,-5.31319h-24.1875h-2.6875h-2.6875h-5.375h-5.375h-24.1875z"></path></g><g fill="#8d6c9f"><path d="M145.125,59.125h5.375v96.75h-5.375z"></path></g><g fill="#8d6c9f"><path d="M88.6875,115.5625h-5.375v5.375h5.375c1.4835,0 2.6875,-1.204 2.6875,-2.6875c0,-1.4835 -1.204,-2.6875 -2.6875,-2.6875zM83.3125,77.9375h5.375c1.4835,0 2.6875,-1.204 2.6875,-2.6875c0,-1.4835 -1.204,-2.6875 -2.6875,-2.6875h-5.375zM88.6875,104.8125h-5.375v5.375h5.375c1.4835,0 2.6875,-1.204 2.6875,-2.6875c0,-1.4835 -1.204,-2.6875 -2.6875,-2.6875zM88.6875,137.0625h-5.375v5.375h5.375c1.4835,0 2.6875,-1.204 2.6875,-2.6875c0,-1.4835 -1.204,-2.6875 -2.6875,-2.6875zM88.6875,126.3125h-5.375v5.375h5.375c1.4835,0 2.6875,-1.204 2.6875,-2.6875c0,-1.4835 -1.204,-2.6875 -2.6875,-2.6875zM88.6875,83.3125h-5.375v5.375h5.375c1.4835,0 2.6875,-1.204 2.6875,-2.6875c0,-1.4835 -1.204,-2.6875 -2.6875,-2.6875zM88.6875,94.0625h-5.375v5.375h5.375c1.4835,0 2.6875,-1.204 2.6875,-2.6875c0,-1.4835 -1.204,-2.6875 -2.6875,-2.6875z"></path></g></g><path d="" fill="none" stroke="none"></path><path d="" fill="none" stroke="none"></path><path d="" fill="none" stroke="none"></path><path d="" fill="none" stroke="none"></path><path d="" fill="none" stroke="none"></path><path d="" fill="none" stroke="none"></path><path d="" fill="none" stroke="none"></path><path d="" fill="none" stroke="none"></path></g></g></svg>