<svg xmlns="http://www.w3.org/2000/svg" x="0px" y="0px" width="32" height="32" viewBox="0 0 172 172"
    style=" fill:#000000;">
    <defs>
        <radialGradient cx="86" cy="84.65625" r="84.00856" gradientUnits="userSpaceOnUse" id="color-1_119026_gr1">
            <stop offset="0" stop-color="#efdcb1"></stop>
            <stop offset="0" stop-color="#f2e0bb"></stop>
            <stop offset="0.011" stop-color="#f2e0bc"></stop>
            <stop offset="0.362" stop-color="#f9edd2"></stop>
            <stop offset="0.699" stop-color="#fef4df"></stop>
            <stop offset="1" stop-color="#fff7e4"></stop>
        </radialGradient>
        <radialGradient cx="49.74274" cy="178.16943" r="187.17239" gradientUnits="userSpaceOnUse"
            id="color-2_119026_gr2">
            <stop offset="0.073" stop-color="#eacc7b"></stop>
            <stop offset="0.184" stop-color="#ecaa59"></stop>
            <stop offset="0.307" stop-color="#ef802e"></stop>
            <stop offset="0.358" stop-color="#ef6d3a"></stop>
            <stop offset="0.46" stop-color="#f04b50"></stop>
            <stop offset="0.516" stop-color="#f03e58"></stop>
            <stop offset="0.689" stop-color="#db359e"></stop>
            <stop offset="0.724" stop-color="#ce37a4"></stop>
            <stop offset="0.789" stop-color="#ac3cb4"></stop>
            <stop offset="0.877" stop-color="#7544cf"></stop>
            <stop offset="0.98" stop-color="#2b4ff2"></stop>
        </radialGradient>
    </defs>
    <g fill="none" fill-rule="nonzero" stroke="none" stroke-width="1" stroke-linecap="butt" stroke-linejoin="miter"
        stroke-miterlimit="10" stroke-dasharray="" stroke-dashoffset="0" font-family="none" font-weight="none"
        font-size="none" text-anchor="none" style="mix-blend-mode: normal">
        <path d="M0,172v-172h172v172z" fill="none"></path>
        <g>
            <path
                d="M155.875,145.125c-2.95625,0 -5.375,-2.41875 -5.375,-5.375c0,-2.95625 2.41875,-5.375 5.375,-5.375h6.71875c5.10625,0 9.40625,-4.3 9.40625,-9.40625c0,-5.10625 -4.3,-9.40625 -9.40625,-9.40625h-28.21875c-3.7625,0 -6.71875,-2.95625 -6.71875,-6.71875c0,-3.7625 2.95625,-6.71875 6.71875,-6.71875h21.5c4.56875,0 8.0625,-3.49375 8.0625,-8.0625c0,-4.56875 -3.49375,-8.0625 -8.0625,-8.0625h-43v-16.125h48.375c6.18125,0 11.2875,-5.375 10.75,-11.825c-0.5375,-5.64375 -5.64375,-9.675 -11.2875,-9.675h-4.8375c-2.95625,0 -5.375,-2.41875 -5.375,-5.375c0,-2.95625 2.41875,-5.375 5.375,-5.375h1.075c3.49375,0 6.71875,-2.41875 6.9875,-5.9125c0.5375,-4.03125 -2.6875,-7.525 -6.71875,-7.525h-37.625c-2.15,0 -4.03125,-1.88125 -4.03125,-4.03125c0,-2.15 1.88125,-4.03125 4.03125,-4.03125h10.48125c3.49375,0 6.71875,-2.41875 6.9875,-5.9125c0.26875,-4.03125 -2.6875,-7.525 -6.71875,-7.525h-88.41875c-3.49375,0 -6.71875,2.41875 -6.9875,5.9125c-0.26875,4.03125 2.6875,7.525 6.71875,7.525h9.40625c2.95625,0 5.375,2.41875 5.375,5.375c0,2.95625 -2.41875,5.375 -5.375,5.375h-34.4c-5.64375,0 -10.75,4.03125 -11.2875,9.675c-0.5375,6.45 4.56875,11.825 10.75,11.825h6.71875c5.10625,0 9.40625,4.3 9.40625,9.40625c0,5.10625 -4.3,9.40625 -9.40625,9.40625h-8.86875c-5.64375,0 -10.75,4.03125 -11.2875,9.675c-0.5375,6.45 4.56875,11.825 10.75,11.825h45.6875v29.5625h-43c-4.56875,0 -8.0625,3.49375 -8.0625,8.0625c0,4.56875 3.49375,8.0625 8.0625,8.0625v0c2.95625,0 5.375,2.41875 5.375,5.375c0,2.95625 -2.41875,5.375 -5.375,5.375h-4.8375c-5.64375,0 -10.75,4.03125 -11.2875,9.675c-0.5375,6.45 4.56875,11.825 10.75,11.825h144.5875c5.64375,0 10.75,-4.03125 11.2875,-9.675c0.5375,-6.45 -4.56875,-11.825 -10.75,-11.825z"
                fill="url(#color-1_119026_gr1)"></path>
            <path
                d="M120.9375,153.1875h-69.875c-14.78125,0 -26.875,-12.09375 -26.875,-26.875v-69.875c0,-14.78125 12.09375,-26.875 26.875,-26.875h69.875c14.78125,0 26.875,12.09375 26.875,26.875v69.875c0,14.78125 -12.09375,26.875 -26.875,26.875z"
                fill="url(#color-2_119026_gr2)"></path>
            <path
                d="M86,53.75c12.3625,0 13.70625,0 18.54375,0.26875c4.56875,0.26875 6.9875,1.075 8.6,1.6125c2.15,0.80625 3.7625,1.88125 5.375,3.49375c1.6125,1.6125 2.6875,3.225 3.49375,5.375c0.5375,1.6125 1.34375,4.03125 1.6125,8.6c0,4.56875 0,5.9125 0,18.275c0,12.3625 0,13.70625 -0.26875,18.54375c-0.26875,4.56875 -1.075,6.9875 -1.6125,8.6c-0.80625,2.15 -1.88125,3.7625 -3.49375,5.375c-1.6125,1.6125 -3.225,2.6875 -5.375,3.49375c-1.6125,0.5375 -4.03125,1.34375 -8.6,1.6125c-4.56875,0 -5.9125,0 -18.275,0c-12.3625,0 -13.70625,0 -18.54375,-0.26875c-4.56875,-0.26875 -6.9875,-1.075 -8.6,-1.6125c-2.15,-0.80625 -3.7625,-1.88125 -5.375,-3.49375c-1.6125,-1.6125 -2.6875,-3.225 -3.49375,-5.375c-0.5375,-1.6125 -1.34375,-4.03125 -1.6125,-8.6c0,-4.56875 0,-5.9125 0,-18.275c0,-12.3625 0,-13.70625 0.26875,-18.54375c0.26875,-4.56875 1.075,-6.9875 1.6125,-8.6c0.80625,-2.15 1.88125,-3.7625 3.49375,-5.375c1.6125,-1.6125 3.225,-2.6875 5.375,-3.49375c1.6125,-0.5375 4.03125,-1.34375 8.6,-1.6125c4.56875,0 5.9125,0 18.275,0M86,45.6875c-12.3625,0 -13.975,0 -18.8125,0.26875c-4.8375,0.26875 -8.0625,1.075 -11.01875,2.15c-2.95625,1.075 -5.64375,2.6875 -8.0625,5.375c-2.41875,2.6875 -4.03125,5.10625 -5.375,8.0625c-1.075,2.95625 -1.88125,6.18125 -2.15,11.01875c-0.26875,4.8375 -0.26875,6.45 -0.26875,18.8125c0,12.3625 0,13.975 0.26875,18.8125c0.26875,4.8375 1.075,8.0625 2.15,11.01875c1.075,2.95625 2.6875,5.64375 5.375,8.0625c2.41875,2.41875 5.10625,4.03125 8.0625,5.375c2.95625,1.075 6.18125,1.88125 11.01875,2.15c4.8375,0.26875 6.45,0.26875 18.8125,0.26875c12.3625,0 13.975,0 18.8125,-0.26875c4.8375,-0.26875 8.0625,-1.075 11.01875,-2.15c2.95625,-1.075 5.64375,-2.6875 8.0625,-5.375c2.41875,-2.41875 4.03125,-5.10625 5.375,-8.0625c1.075,-2.95625 1.88125,-6.18125 2.15,-11.01875c0.26875,-4.8375 0.26875,-6.45 0.26875,-18.8125c0,-12.3625 0,-13.975 -0.26875,-18.8125c-0.26875,-4.8375 -1.075,-8.0625 -2.15,-11.01875c-1.075,-2.95625 -2.6875,-5.64375 -5.375,-8.0625c-2.6875,-2.41875 -5.10625,-4.03125 -8.0625,-5.375c-2.95625,-1.075 -6.18125,-1.88125 -11.01875,-2.15c-4.8375,-0.26875 -6.45,-0.26875 -18.8125,-0.26875z"
                fill="#ffffff"></path>
            <path
                d="M86,67.1875c-13.4375,0 -24.1875,10.75 -24.1875,24.1875c0,13.4375 10.75,24.1875 24.1875,24.1875c13.4375,0 24.1875,-10.75 24.1875,-24.1875c0,-13.4375 -10.75,-24.1875 -24.1875,-24.1875zM86,107.5c-8.86875,0 -16.125,-7.25625 -16.125,-16.125c0,-8.86875 7.25625,-16.125 16.125,-16.125c8.86875,0 16.125,7.25625 16.125,16.125c0,8.86875 -7.25625,16.125 -16.125,16.125z"
                fill="#ffffff"></path>
            <circle cx="41" cy="25" transform="scale(2.6875,2.6875)" r="2" fill="#ffffff"></circle>
        </g>
    </g>
</svg>