<svg xmlns="http://www.w3.org/2000/svg" x="0px" y="0px" width="64" height="64" viewBox="0 0 172 172"
    style=" fill:#000000;">
    <g transform="translate(0.516,0.516) scale(0.994,0.994)">
        <g fill="none" fill-rule="nonzero" stroke="none" stroke-width="1" stroke-linecap="butt" stroke-linejoin="none"
            stroke-miterlimit="10" stroke-dasharray="" stroke-dashoffset="0" font-family="none" font-weight="none"
            font-size="none" text-anchor="none" style="mix-blend-mode: normal">
            <g stroke="#34495e" stroke-linejoin="round">
                <path
                    d="M158.5625,55.98869c0,0.84656 -0.25262,1.63131 -0.73369,2.22794c-0.48106,0.59662 -1.10994,0.90837 -1.76838,0.90837h-140.12356c-1.03469,0 -1.96994,-0.78475 -2.34887,-1.97531c-0.25262,-0.78475 -0.25262,-1.63131 0.02419,-2.41606c0.25262,-0.7525 0.75787,-1.34913 1.38944,-1.66356l69.15206,-33.8195c0.58319,-0.28219 1.21475,-0.43806 1.84631,-0.43806c0.63156,0 1.26313,0.15587 1.84363,0.43806l69.12787,33.8195c0.95944,0.47031 1.591,1.63131 1.591,2.91862z"
                    fill="#ced9ed"></path>
                <path
                    d="M156.4125,58.8025c-0.05375,0.1075 -0.1075,0.215 -0.16125,0.29563c-0.05375,0.02687 -0.13437,0.02687 -0.18812,0.02687h-11.20688l-58.85625,-28.81l-58.91,28.81h-10.34687c-0.16125,-0.215 -0.29563,-0.45688 -0.43,-0.69875c-1.29,-2.6875 -0.18813,-5.88563 2.4725,-7.2025l65.36,-31.98125l1.85437,-0.91375l1.85438,0.91375l66.1125,32.3575c0.02688,0 0.02688,0.02687 0.05375,0.02687c2.63375,1.34375 3.70875,4.54188 2.39188,7.17563z"
                    fill="#b5c4e0"></path>
                <path
                    d="M48.375,59.125v8.0625c0,1.4835 -1.204,2.6875 -2.6875,2.6875h-16.125c-1.4835,0 -2.6875,-1.204 -2.6875,-2.6875v-8.0625M80.625,59.125v8.0625c0,1.4835 -1.204,2.6875 -2.6875,2.6875h-16.125c-1.4835,0 -2.6875,-1.204 -2.6875,-2.6875v-8.0625M112.875,59.125v8.0625c0,1.4835 -1.204,2.6875 -2.6875,2.6875h-16.125c-1.4835,0 -2.6875,-1.204 -2.6875,-2.6875v-8.0625M145.125,59.125v8.0625c0,1.4835 -1.204,2.6875 -2.6875,2.6875h-16.125c-1.4835,0 -2.6875,-1.204 -2.6875,-2.6875v-8.0625"
                    fill="#c2cde7"></path>
                <path
                    d="M155.875,137.0625c1.4835,0 2.6875,1.204 2.6875,2.6875v13.4375h-145.125v-13.4375c0,-1.4835 1.204,-2.6875 2.6875,-2.6875h5.375v-8.0625c0,-1.4835 1.204,-2.6875 2.6875,-2.6875h123.625c1.4835,0 2.6875,1.204 2.6875,2.6875v8.0625zM29.5625,69.875h16.125v56.4375h-16.125zM126.3125,69.875h16.125v56.4375h-16.125zM61.8125,69.875h16.125v56.4375h-16.125zM94.0625,69.875h16.125v56.4375h-16.125z"
                    fill="#ced9ed"></path>
                <path
                    d="M29.5625,69.875h16.125v8.0625h-16.125zM126.3125,69.875h16.125v8.0625h-16.125zM61.8125,69.875h16.125v8.0625h-16.125zM94.0625,69.875h16.125v8.0625h-16.125zM13.4375,139.75h145.125v13.4375h-145.125z"
                    fill="#b5c4e0"></path>
                <path
                    d="M142.4375,139.75c0,1.4835 -1.204,2.6875 -2.6875,2.6875h-10.75c-1.4835,0 -2.6875,-1.204 -2.6875,-2.6875c0,-1.4835 1.204,-2.6875 2.6875,-2.6875h10.75c1.4835,0 2.6875,1.204 2.6875,2.6875z"
                    fill="#8d6c9f"></path>
                <path
                    d="M161.25,142.4375v10.75c0,1.47813 -1.20938,2.6875 -2.6875,2.6875h-145.125c-1.47812,0 -2.6875,-1.20937 -2.6875,-2.6875v-10.75c0,-2.95625 2.41875,-5.375 5.375,-5.375h2.6875v-8.0625c0,-2.95625 2.41875,-5.375 5.375,-5.375h2.6875v-51.80962c-1.59906,-0.93256 -2.6875,-2.64719 -2.6875,-4.62788v-5.375h-8.25062c-2.20644,0 -4.17906,-1.548 -4.91275,-3.8485c-0.43269,-1.33837 -0.41387,-2.80844 0.05375,-4.128c0.46225,-1.37062 1.45931,-2.54237 2.72781,-3.17125l69.16819,-33.82756c1.92156,-0.93525 4.13337,-0.93256 6.04419,-0.00269l69.13325,33.82219c1.88394,0.9245 3.09869,3.01537 3.09869,5.332c0,1.45931 -0.47031,2.84875 -1.32494,3.913c-0.98094,1.21475 -2.38919,1.91081 -3.86462,1.91081h-8.24794v5.375c0,1.98069 -1.08844,3.69531 -2.6875,4.62788v51.80962h2.6875c2.95625,0 5.375,2.41875 5.375,5.375v8.0625h2.6875c2.95625,0 5.375,2.41875 5.375,5.375zM155.79169,56.4375c0.04031,-0.08869 0.08331,-0.23113 0.08331,-0.44881c0,-0.29562 -0.1075,-0.49988 -0.15319,-0.54825l-69.058,-33.77381c-0.44344,-0.215 -0.87881,-0.21769 -1.333,0.00269l-69.14938,33.81681c-0.13438,0.41925 -0.09138,0.67187 -0.03763,0.8385c0.02688,0.0645 0.02688,0.09944 0.00806,0.11288zM142.4375,67.1875v-5.375h-16.125v5.375zM129,72.5625v51.0625h10.75v-51.0625zM120.9375,67.1875v-5.375h-5.375v5.375c0,1.98069 -1.08844,3.69531 -2.6875,4.62788v51.80962h10.75v-51.80962c-1.59906,-0.93256 -2.6875,-2.64719 -2.6875,-4.62788zM110.1875,67.1875v-5.375h-16.125v5.375zM96.75,72.5625v51.0625h10.75v-51.0625zM88.6875,67.1875v-5.375h-5.375v5.375c0,1.98069 -1.08844,3.69531 -2.6875,4.62788v51.80962h10.75v-51.80962c-1.59906,-0.93256 -2.6875,-2.64719 -2.6875,-4.62788zM77.9375,67.1875v-5.375h-16.125v5.375zM64.5,72.5625v51.0625h10.75v-51.0625zM56.4375,67.1875v-5.375h-5.375v5.375c0,1.98069 -1.08844,3.69531 -2.6875,4.62788v51.80962h10.75v-51.80962c-1.59906,-0.93256 -2.6875,-2.64719 -2.6875,-4.62788zM45.6875,67.1875v-5.375h-16.125v5.375zM32.25,72.5625v51.0625h10.75v-51.0625zM155.875,142.4375h-5.375c-1.47812,0 -2.6875,-1.20937 -2.6875,-2.6875v-10.75h-123.625v8.0625h94.0625c1.4835,0 2.6875,1.204 2.6875,2.6875c0,1.4835 -1.204,2.6875 -2.6875,2.6875h-102.125v8.0625h139.75z"
                    fill="#8d6c9f"></path>
            </g>
            <path d="M0,172v-172h172v172z" fill="none" stroke="none" stroke-linejoin="miter"></path>
            <g stroke="none" stroke-linejoin="miter">
                <path
                    d="M158.5625,55.98869c0,0.84656 -0.25262,1.63131 -0.73369,2.22794c-0.48106,0.59662 -1.10994,0.90837 -1.76838,0.90837h-140.12356c-1.03469,0 -1.96994,-0.78475 -2.34887,-1.97531c-0.25262,-0.78475 -0.25262,-1.63131 0.02419,-2.41606c0.25262,-0.7525 0.75787,-1.34913 1.38944,-1.66356l69.15206,-33.8195c0.58319,-0.28219 1.21475,-0.43806 1.84631,-0.43806c0.63156,0 1.26313,0.15587 1.84363,0.43806l69.12787,33.8195c0.95944,0.47031 1.591,1.63131 1.591,2.91862z"
                    fill="#ced9ed"></path>
                <path
                    d="M156.4125,58.8025c-0.05375,0.1075 -0.1075,0.215 -0.16125,0.29563c-0.05375,0.02687 -0.13437,0.02687 -0.18812,0.02687h-11.20688l-58.85625,-28.81l-58.91,28.81h-10.34687c-0.16125,-0.215 -0.29563,-0.45688 -0.43,-0.69875c-1.29,-2.6875 -0.18813,-5.88563 2.4725,-7.2025l65.36,-31.98125l1.85437,-0.91375l1.85438,0.91375l66.1125,32.3575c0.02688,0 0.02688,0.02687 0.05375,0.02687c2.63375,1.34375 3.70875,4.54188 2.39188,7.17563z"
                    fill="#b5c4e0"></path>
                <path
                    d="M26.875,59.125v8.0625c0,1.4835 1.204,2.6875 2.6875,2.6875h16.125c1.4835,0 2.6875,-1.204 2.6875,-2.6875v-8.0625M59.125,59.125v8.0625c0,1.4835 1.204,2.6875 2.6875,2.6875h16.125c1.4835,0 2.6875,-1.204 2.6875,-2.6875v-8.0625M91.375,59.125v8.0625c0,1.4835 1.204,2.6875 2.6875,2.6875h16.125c1.4835,0 2.6875,-1.204 2.6875,-2.6875v-8.0625M123.625,59.125v8.0625c0,1.4835 1.204,2.6875 2.6875,2.6875h16.125c1.4835,0 2.6875,-1.204 2.6875,-2.6875v-8.0625"
                    fill="#c2cde7"></path>
                <path
                    d="M150.5,137.0625v-8.0625c0,-1.4835 -1.204,-2.6875 -2.6875,-2.6875h-123.625c-1.4835,0 -2.6875,1.204 -2.6875,2.6875v8.0625h-5.375c-1.4835,0 -2.6875,1.204 -2.6875,2.6875v13.4375h145.125v-13.4375c0,-1.4835 -1.204,-2.6875 -2.6875,-2.6875zM29.5625,69.875h16.125v56.4375h-16.125zM126.3125,69.875h16.125v56.4375h-16.125zM61.8125,69.875h16.125v56.4375h-16.125zM94.0625,69.875h16.125v56.4375h-16.125z"
                    fill="#ced9ed"></path>
                <path
                    d="M29.5625,69.875h16.125v8.0625h-16.125zM126.3125,69.875h16.125v8.0625h-16.125zM61.8125,69.875h16.125v8.0625h-16.125zM94.0625,69.875h16.125v8.0625h-16.125zM13.4375,139.75h145.125v13.4375h-145.125z"
                    fill="#b5c4e0"></path>
                <path
                    d="M139.75,137.0625h-10.75c-1.4835,0 -2.6875,1.204 -2.6875,2.6875c0,1.4835 1.204,2.6875 2.6875,2.6875h10.75c1.4835,0 2.6875,-1.204 2.6875,-2.6875c0,-1.4835 -1.204,-2.6875 -2.6875,-2.6875z"
                    fill="#8d6c9f"></path>
                <path
                    d="M155.875,137.0625h-2.6875v-8.0625c0,-2.95625 -2.41875,-5.375 -5.375,-5.375h-2.6875v-51.80962c1.59906,-0.93256 2.6875,-2.64719 2.6875,-4.62788v-5.375h8.24794c1.47544,0 2.88369,-0.69606 3.86462,-1.91081c0.85462,-1.06425 1.32494,-2.45369 1.32494,-3.913c0,-2.31663 -1.21475,-4.4075 -3.09869,-5.332l-69.13325,-33.82219c-1.91081,-0.92987 -4.12262,-0.93256 -6.04419,0.00269l-69.16819,33.82756c-1.2685,0.62888 -2.26556,1.80062 -2.72781,3.17125c-0.46763,1.31956 -0.48644,2.78963 -0.05375,4.128c0.73369,2.3005 2.70631,3.8485 4.91275,3.8485h8.25063v5.375c0,1.98069 1.08844,3.69531 2.6875,4.62788v51.80962h-2.6875c-2.95625,0 -5.375,2.41875 -5.375,5.375v8.0625h-2.6875c-2.95625,0 -5.375,2.41875 -5.375,5.375v10.75c0,1.47813 1.20937,2.6875 2.6875,2.6875h145.125c1.47813,0 2.6875,-1.20937 2.6875,-2.6875v-10.75c0,-2.95625 -2.41875,-5.375 -5.375,-5.375zM16.15188,56.4375c0.01881,-0.01344 0.01881,-0.04838 -0.00806,-0.11288c-0.05375,-0.16662 -0.09675,-0.41925 0.03763,-0.8385l69.14938,-33.81681c0.45419,-0.22037 0.88956,-0.21769 1.333,-0.00269l69.058,33.77381c0.04569,0.04838 0.15319,0.25263 0.15319,0.54825c0,0.21769 -0.043,0.36013 -0.08331,0.44881zM126.3125,67.1875v-5.375h16.125v5.375zM139.75,72.5625v51.0625h-10.75v-51.0625zM123.625,71.81538v51.80962h-10.75v-51.80962c1.59906,-0.93256 2.6875,-2.64719 2.6875,-4.62788v-5.375h5.375v5.375c0,1.98069 1.08844,3.69531 2.6875,4.62788zM94.0625,67.1875v-5.375h16.125v5.375zM107.5,72.5625v51.0625h-10.75v-51.0625zM91.375,71.81538v51.80962h-10.75v-51.80962c1.59906,-0.93256 2.6875,-2.64719 2.6875,-4.62788v-5.375h5.375v5.375c0,1.98069 1.08844,3.69531 2.6875,4.62788zM61.8125,67.1875v-5.375h16.125v5.375zM75.25,72.5625v51.0625h-10.75v-51.0625zM59.125,71.81538v51.80962h-10.75v-51.80962c1.59906,-0.93256 2.6875,-2.64719 2.6875,-4.62788v-5.375h5.375v5.375c0,1.98069 1.08844,3.69531 2.6875,4.62788zM29.5625,67.1875v-5.375h16.125v5.375zM43,72.5625v51.0625h-10.75v-51.0625zM155.875,150.5h-139.75v-8.0625h5.375h96.75c1.4835,0 2.6875,-1.204 2.6875,-2.6875c0,-1.4835 -1.204,-2.6875 -2.6875,-2.6875h-94.0625v-8.0625h123.625v10.75c0,1.47813 1.20938,2.6875 2.6875,2.6875h5.375z"
                    fill="#8d6c9f"></path>
            </g>
            <path d="" fill="none" stroke="none" stroke-linejoin="miter"></path>
            <path d="" fill="none" stroke="none" stroke-linejoin="miter"></path>
            <path d="" fill="none" stroke="none" stroke-linejoin="miter"></path>
            <path d="" fill="none" stroke="none" stroke-linejoin="miter"></path>
            <path d="" fill="none" stroke="none" stroke-linejoin="miter"></path>
            <path d="" fill="none" stroke="none" stroke-linejoin="miter"></path>
            <path d="" fill="none" stroke="none" stroke-linejoin="miter"></path>
            <path d="" fill="none" stroke="none" stroke-linejoin="miter"></path>
        </g>
    </g>
</svg>