<svg xmlns="http://www.w3.org/2000/svg" x="0px" y="0px"
width="64" height="64"
viewBox="0 0 172 172"
style=" fill:#000000;"><g transform="translate(0.516,0.516) scale(0.994,0.994)"><g fill="none" fill-rule="nonzero" stroke="none" stroke-width="1" stroke-linecap="butt" stroke-linejoin="none" stroke-miterlimit="10" stroke-dasharray="" stroke-dashoffset="0" font-family="none" font-weight="none" font-size="none" text-anchor="none" style="mix-blend-mode: normal"><g stroke="#cccccc" stroke-linejoin="round"><path d="M82.56172,126.21016c0,-0.41968 0.00344,-2.3736 0.00344,-2.3736c0,-7.28076 5.79124,-11.07164 9.245,-12.685c2.64364,-1.23496 10.4404,-5.00864 10.44384,-5.0138c2.12076,-0.87032 4.38772,-2.89132 4.38772,-5.9512v-2.52324l-0.72584,-0.51428c-3.28348,-2.32716 -5.6932,-5.45412 -8.30244,-9.43248c-0.89268,-1.36052 -2.15,-4.46684 -2.15,-7.1294v-0.90644l-0.7482,-0.51256c-0.77744,-0.5332 -1.40352,-1.45512 -1.76644,-2.60752c-0.33712,-1.04576 -1.763,-8.24396 -1.78192,-9.20372c0.0344,-1.0234 0.40764,-1.72 0.72584,-2.13452l0.98728,-1.31752v-9.72488c0,-13.9406 10.57628,-24.86432 24.08,-24.86432c13.50372,0 24.08,10.92372 24.08,24.86432v9.72832l0.99588,1.33128c0.30788,0.4042 0.68112,1.09736 0.71552,2.10184c-0.02064,0.98212 -1.44824,8.18892 -1.78708,9.24156c-0.35776,1.13864 -0.98384,2.05884 -1.75956,2.59032l-0.7482,0.52288v0.90644c0,2.65052 -1.2556,5.75684 -2.15,7.11736c-2.60924,3.97836 -5.01896,7.1036 -8.30244,9.43248l-0.72584,0.51428v2.52324c0,4.2656 4.1796,5.86692 4.19164,5.86692c0.10148,0.04644 0.76712,0.36636 1.73204,0.83248c2.51464,1.21088 7.02276,3.38152 8.9096,4.26388c3.45204,1.61336 9.245,5.40424 9.245,12.68844l0.00172,1.08016c0.00172,0.82216 0.00344,1.8232 -0.00172,2.3736c0,1.88684 -1.54284,3.42452 -3.44,3.42452h-60.55948" fill="#ccac94"></path><path d="M151.35484,127.28c0,1.9006 -1.54112,3.44 -3.44,3.44h-61.91312c-1.9006,0 -3.44,-1.5394 -3.44,-3.44c-0.00688,-0.82732 0,-2.7692 0,-3.44c0,-6.88 5.117,-10.75688 9.245,-12.685c2.66256,-1.24356 10.535,-5.05336 10.535,-5.05336c0,0 1.92812,-1.06468 1.94016,-1.07156c0.41452,-0.23564 0.9374,-0.08772 1.17132,0.3268c0.0086,0.01204 2.00208,3.0014 11.50508,3.0014c9.503,0 11.49648,-2.98936 11.5154,-3.02032c0.2494,-0.39388 0.77228,-0.52804 1.17476,-0.28896c0.02236,0.01376 1.92984,1.05264 1.92984,1.05264c0,0 7.87416,3.8098 10.535,5.05336c4.128,1.92812 9.245,5.805 9.245,12.685c0,0.6708 0.00688,2.61268 -0.00344,3.44z" fill="#60be92"></path><path d="M89.43484,141.05548c0,1.88684 -1.54284,3.42452 -3.44,3.42452h-61.91312c-1.89716,0 -3.44,-1.54628 -3.44,-3.4658c-0.00516,-0.516 -0.00344,-1.5136 -0.00172,-2.33404l0.00516,-1.0836c0,-7.28076 5.79124,-11.07164 9.245,-12.685c2.64364,-1.23496 10.4404,-5.00864 10.44384,-5.0138c2.12076,-0.87032 4.38772,-2.89132 4.38772,-5.9512v-2.52324l-0.72584,-0.51428c-3.28348,-2.32716 -5.6932,-5.45412 -8.30244,-9.43248c-0.89268,-1.36052 -2.15,-4.46684 -2.15,-7.1294v-0.90644l-0.7482,-0.51256c-0.77744,-0.5332 -1.40352,-1.45512 -1.76644,-2.60752c-0.33712,-1.04576 -1.763,-8.24396 -1.78192,-9.20372c0.0344,-1.0234 0.40764,-1.72 0.72584,-2.13452l0.98728,-1.31752v-9.72488c0,-13.9406 10.57628,-24.86432 24.08,-24.86432c13.50372,0 24.08,10.92372 24.08,24.86432v9.72832l0.9976,1.33128c0.30788,0.4042 0.68112,1.09736 0.71552,2.10184c-0.02064,0.98212 -1.44824,8.18892 -1.78708,9.24156c-0.35776,1.13864 -0.98384,2.05884 -1.75956,2.59032l-0.7482,0.52288v0.90644c0,2.65052 -1.2556,5.75684 -2.15,7.11736c-2.60924,3.97836 -5.01896,7.1036 -8.30244,9.43248l-0.72584,0.51428v2.52324c0,4.2656 4.1796,5.86692 4.19164,5.86692c0.10148,0.04644 0.76712,0.36636 1.73204,0.83248c2.51464,1.21088 7.02276,3.38152 8.9096,4.26388c3.45204,1.61336 9.245,5.40424 9.245,12.68844l0.00172,1.08016c0,0.82044 0.00172,1.82148 -0.00516,2.3736z" fill="#ead6c7"></path><path d="M89.43656,141.03484c0,1.9006 -1.54112,3.44 -3.44,3.44h-61.91312c-1.9006,0 -3.44,-1.5394 -3.44,-3.44c-0.00688,-0.82732 0,-2.7692 0,-3.44c0,-6.88 5.117,-10.75688 9.245,-12.685c2.66256,-1.24356 10.535,-5.05336 10.535,-5.05336c0,0 1.92812,-1.06468 1.94016,-1.07156c0.41452,-0.23564 0.9374,-0.08772 1.17132,0.3268c0.0086,0.01204 2.00208,3.0014 11.50508,3.0014c9.503,0 11.49648,-2.98936 11.5154,-3.02032c0.2494,-0.39388 0.77228,-0.52804 1.17476,-0.28896c0.02236,0.01376 1.92984,1.05264 1.92984,1.05264c0,0 7.87416,3.8098 10.535,5.05336c4.128,1.92812 9.245,5.805 9.245,12.685c0,0.6708 0.00688,2.61268 -0.00344,3.44z" fill="#f15b6c"></path><g fill="#1f212b"><path d="M85.99656,146.2h-61.91312c-2.84488,0 -5.16,-2.32716 -5.16,-5.1858c-0.00516,-0.37152 -0.00516,-1.03888 -0.00344,-1.70108l0.00344,-1.72344c0,-8.22848 6.41388,-12.4528 10.23744,-14.23816c2.61612,-1.2212 10.04996,-4.82116 10.39396,-4.988c0.03956,-0.02236 0.08256,-0.03956 0.12556,-0.05848c1.60648,-0.65704 3.32132,-2.14828 3.32132,-4.35848v-1.63228c-3.50192,-2.48196 -6.0286,-5.75168 -8.7462,-9.89344c-0.94084,-1.43104 -2.43208,-4.88996 -2.43208,-8.07196c-1.09564,-0.75164 -1.95908,-1.99692 -2.43552,-3.5088c-0.33196,-1.03888 -1.83524,-8.471 -1.86104,-9.6836c0.04128,-1.26248 0.4128,-2.34092 1.07672,-3.21296l0.6364,-0.8514v-9.15212c0,-14.90724 11.33308,-26.58432 25.8,-26.58432c14.46692,0 25.8,11.67708 25.8,26.58432v9.15556l0.6536,0.87204c0.45236,0.59512 1.00792,1.61852 1.0578,3.07192c-0.0258,1.3588 -1.51876,8.7376 -1.86792,9.82808c-0.47128,1.4964 -1.33472,2.73824 -2.42692,3.483v0.01032c0,3.17512 -1.49124,6.62888 -2.43208,8.06164c-2.7176,4.14176 -5.24428,7.41148 -8.7462,9.89172v1.634c0,2.95324 2.85348,4.16756 3.0702,4.25528c0.03612,0.01376 0.07224,0.02924 0.10836,0.04472c0.10836,0.04644 0.78776,0.37496 1.77332,0.8514c2.50604,1.20744 7.00556,3.37464 8.88896,4.25528c3.82356,1.78536 10.23744,6.00968 10.23744,14.24676l0.00344,1.075c0,0.00172 0,0.00344 0,0.00516v0.63296c0.00172,0.66564 0.00172,1.3416 -0.00344,1.75956c0,2.81736 -2.31512,5.1256 -5.16,5.1256zM40.97556,121.4664c-1.03372,0.5934 -3.59308,1.84212 -10.35956,5.00176c-3.08224,1.43964 -8.25256,4.79708 -8.25256,11.12668l-0.00344,1.72172c-0.00172,0.64328 -0.00172,1.29344 0.00344,1.677c0,0.98384 0.77056,1.76644 1.72,1.76644h61.91312c0.94944,0 1.72,-0.76368 1.72,-1.70452c0.00516,-0.43 0.00516,-1.09048 0.00344,-1.7372l-0.00344,-1.7114c0,-6.33648 -5.17032,-9.69564 -8.25256,-11.13528c-1.89372,-0.88408 -6.41044,-3.05988 -8.92852,-4.2742c-0.93052,-0.44892 -1.57724,-0.76024 -1.6942,-0.81528l0.01376,-0.03268c-1.63916,-0.63812 -5.21504,-2.96184 -5.21504,-7.40288v-2.52324c0,-0.55728 0.27004,-1.08188 0.72584,-1.40352l0.72584,-0.51428c3.05988,-2.16892 5.35436,-5.15484 7.85868,-8.97324c0.75336,-1.14724 1.86792,-3.90268 1.86792,-6.17308v-0.90644c0,-0.56244 0.2752,-1.08876 0.73616,-1.4104l0.74992,-0.52288c0.46612,-0.3182 0.86344,-0.93396 1.10424,-1.69592c0.32852,-1.02856 1.67012,-7.90512 1.70796,-8.76856c-0.01892,-0.44892 -0.20984,-0.81184 -0.36636,-1.01824l-1.0062,-1.33644c-0.2236,-0.29756 -0.344,-0.65876 -0.344,-1.032v-9.72832c0,-12.97912 -9.8212,-23.14432 -22.36,-23.14432c-12.5388,0 -22.36,10.1652 -22.36,23.14432v9.72488c0,0.37324 -0.1204,0.73444 -0.344,1.032l-0.98728,1.31752c-0.2408,0.3182 -0.36636,0.70348 -0.38356,1.16272c0.043,0.7654 1.37944,7.61444 1.70108,8.61892c0.24596,0.78088 0.64672,1.4018 1.1008,1.71484l0.7482,0.51084c0.46784,0.32164 0.74992,0.8514 0.74992,1.419v0.90644c0,2.279 1.11284,5.03788 1.86792,6.18512c2.50432,3.8184 4.7988,6.80432 7.85868,8.97496l0.72584,0.51256c0.4558,0.32336 0.72584,0.84624 0.72584,1.40352v2.52324c0,3.91128 -2.81908,6.46204 -5.45756,7.54392z"></path><path d="M61.05828,123.28788c-0.40076,0 -0.76024,-0.2838 -0.84108,-0.69316c-0.09288,-0.46612 0.20984,-0.91676 0.67768,-1.00964c4.53908,-0.89784 5.66396,-2.51464 5.67428,-2.53012c0.25972,-0.387 0.78604,-0.51084 1.18164,-0.258c0.39388,0.2494 0.5246,0.7568 0.28552,1.15756c-0.13588,0.22876 -1.48436,2.26352 -6.80776,3.31788c-0.05848,0.01032 -0.11524,0.01548 -0.17028,0.01548z"></path><path d="M55.04,123.81248c-10.51952,0 -12.78132,-3.48128 -13.00492,-3.8786c-0.23392,-0.4128 -0.086,-0.93912 0.3268,-1.17132c0.40592,-0.2322 0.92192,-0.09288 1.16272,0.31132c0.0602,0.09288 2.11388,3.0186 11.51368,3.0186l0.84452,-0.01892c0.52976,0.03784 0.86688,0.3698 0.87548,0.84452c0.0086,0.47472 -0.3698,0.86688 -0.84452,0.87548z"></path><path d="M88.58172,139.32h-48.16172c-0.47472,0 -0.86,-0.38528 -0.86,-0.86c0,-0.47472 0.38528,-0.86 0.86,-0.86h48.16172c0.47472,0 0.86,0.38528 0.86,0.86c0,0.47472 -0.38528,0.86 -0.86,0.86z"></path><path d="M55.04,115.21248c-4.4978,0 -11.76652,-4.6698 -12.0744,-4.8676l0.93396,-1.4448c0.07052,0.04472 7.1466,4.5924 11.14388,4.5924c3.99728,0 11.06992,-4.54768 11.14044,-4.5924l0.93396,1.4448c-0.30788,0.19952 -7.5766,4.8676 -12.07784,4.8676z"></path><path d="M35.26172,139.32h-3.44c-0.47472,0 -0.86,-0.38528 -0.86,-0.86c0,-0.47472 0.38528,-0.86 0.86,-0.86h3.44c0.47472,0 0.85828,0.38528 0.85828,0.86c0,0.47472 -0.38356,0.86 -0.85828,0.86z"></path><path d="M28.38172,139.32h-1.72c-0.47472,0 -0.86,-0.38528 -0.86,-0.86c0,-0.47472 0.38528,-0.86 0.86,-0.86h1.72c0.47472,0 0.85828,0.38528 0.85828,0.86c0,0.47472 -0.38356,0.86 -0.85828,0.86z"></path></g><g fill="#1f212b"><path d="M147.91656,132.44h-60.55948c-0.95116,0 -1.72,-0.76884 -1.72,-1.72c0,-0.95116 0.76884,-1.72 1.72,-1.72h60.55948c0.94944,0 1.72,-0.76368 1.72,-1.70452c0.00516,-0.43 0.00516,-1.09048 0.00344,-1.7372l-0.00344,-1.7114c0,-6.33648 -5.17032,-9.69564 -8.25256,-11.13528c-1.89372,-0.88408 -6.41044,-3.05988 -8.92852,-4.2742c-0.93052,-0.44892 -1.57724,-0.76024 -1.6942,-0.81528l0.01376,-0.03268c-1.63916,-0.63812 -5.21504,-2.96184 -5.21504,-7.40288v-2.52324c0,-0.55728 0.27004,-1.08188 0.72584,-1.40352l0.72584,-0.51428c3.05988,-2.16892 5.35436,-5.15484 7.85868,-8.97324c0.75336,-1.14724 1.86792,-3.90268 1.86792,-6.17308v-0.90644c0,-0.56244 0.2752,-1.08876 0.73616,-1.4104l0.74992,-0.52288c0.46612,-0.3182 0.86344,-0.93396 1.10424,-1.69592c0.32852,-1.02856 1.67012,-7.90512 1.70796,-8.76856c-0.01892,-0.44892 -0.20984,-0.81184 -0.36636,-1.01824l-1.0062,-1.33644c-0.2236,-0.29756 -0.344,-0.65876 -0.344,-1.032v-9.72832c0,-12.97912 -9.8212,-23.14432 -22.36,-23.14432c-12.5388,0 -22.36,10.1652 -22.36,23.14432v9.72488c0,0.37324 -0.1204,0.73444 -0.344,1.032l-0.98728,1.31752c-0.2408,0.3182 -0.36636,0.70348 -0.38356,1.16272c0.043,0.7654 1.37944,7.61444 1.70108,8.61892c0.24596,0.78088 0.64672,1.4018 1.1008,1.71484l0.7482,0.51084c0.46784,0.32164 0.74992,0.8514 0.74992,1.419v0.90644c0,2.279 1.11284,5.03788 1.86792,6.18512c2.50432,3.8184 4.7988,6.80432 7.85868,8.97496l0.72584,0.51256c0.4558,0.32336 0.72584,0.84624 0.72584,1.40352v2.52324c0,3.91128 -2.81908,6.46204 -5.45756,7.54392l-0.0086,-0.02236c-1.03372,0.5934 -3.59308,1.84212 -10.35956,5.00176c-3.08224,1.43964 -8.25256,4.79708 -8.25256,11.12668l-0.00516,2.37188c0,0.95116 -0.76884,1.72 -1.72,1.72c-0.95116,0 -1.72,-0.76884 -1.72,-1.72l0.00344,-2.37704c0,-8.2302 6.41388,-12.45452 10.23744,-14.23988c2.61612,-1.2212 10.04136,-4.816 10.39224,-4.988c0.04128,-0.02064 0.08428,-0.03956 0.12728,-0.05848c1.60648,-0.65704 3.32132,-2.14828 3.32132,-4.35848v-1.63228c-3.50192,-2.48196 -6.0286,-5.75168 -8.7462,-9.89344c-0.94084,-1.43104 -2.43208,-4.88996 -2.43208,-8.07196c-1.09564,-0.75164 -1.95908,-1.99692 -2.43552,-3.5088c-0.33196,-1.03888 -1.83524,-8.471 -1.86104,-9.6836c0.04128,-1.26248 0.4128,-2.34092 1.07672,-3.21296l0.6364,-0.8514v-9.15212c0,-14.90724 11.33308,-26.58432 25.8,-26.58432c14.46692,0 25.8,11.67708 25.8,26.58432v9.15556l0.6536,0.87204c0.45236,0.59512 1.00792,1.61852 1.0578,3.07192c-0.0258,1.3588 -1.51876,8.7376 -1.86792,9.82808c-0.47128,1.4964 -1.33472,2.73824 -2.42692,3.483v0.01032c0,3.17512 -1.49124,6.62888 -2.43208,8.06164c-2.7176,4.14176 -5.24428,7.41148 -8.7462,9.89172v1.634c0,2.95324 2.85348,4.16756 3.0702,4.25528c0.03612,0.01376 0.07224,0.02924 0.10836,0.04472c0.10836,0.04644 0.78776,0.37496 1.77332,0.8514c2.50604,1.20744 7.00556,3.37464 8.88896,4.25528c3.82356,1.78536 10.23744,6.00968 10.23744,14.24676l0.00344,1.71312c0.00172,0.66564 0.00172,1.3416 -0.00344,1.75956c0,2.81736 -2.31512,5.1256 -5.16,5.1256z"></path><path d="M122.97828,109.52788c-0.40076,0 -0.76024,-0.2838 -0.84108,-0.69316c-0.09288,-0.46612 0.20984,-0.91676 0.67768,-1.00964c4.53908,-0.89784 5.66396,-2.51464 5.67428,-2.53012c0.25972,-0.38872 0.78776,-0.50912 1.18164,-0.258c0.39388,0.2494 0.5246,0.7568 0.28552,1.15756c-0.13588,0.22876 -1.48436,2.26352 -6.80776,3.31788c-0.05848,0.01032 -0.11524,0.01548 -0.17028,0.01548z"></path><path d="M116.96,110.05248c-10.51952,0 -12.78132,-3.48128 -13.00492,-3.8786c-0.23392,-0.4128 -0.086,-0.93912 0.3268,-1.17132c0.40592,-0.2322 0.92192,-0.09116 1.16272,0.31132c0.0602,0.09288 2.11388,3.0186 11.51368,3.0186l0.84452,-0.01892c0.50224,0.06192 0.86688,0.3698 0.87548,0.84452c0.0086,0.47472 -0.3698,0.86688 -0.84452,0.87548z"></path><path d="M150.50172,125.56h-48.16172c-0.47472,0 -0.86,-0.38528 -0.86,-0.86c0,-0.47472 0.38528,-0.86 0.86,-0.86h48.16172c0.47472,0 0.86,0.38528 0.86,0.86c0,0.47472 -0.38528,0.86 -0.86,0.86z"></path><path d="M116.96,101.45248c-4.4978,0 -11.76652,-4.6698 -12.0744,-4.8676l0.93396,-1.4448c0.07052,0.04472 7.1466,4.5924 11.14388,4.5924c3.99728,0 11.06992,-4.54768 11.14044,-4.5924l0.93396,1.4448c-0.30788,0.19952 -7.5766,4.8676 -12.07784,4.8676z"></path><path d="M97.18172,125.56h-3.44c-0.47472,0 -0.86,-0.38528 -0.86,-0.86c0,-0.47472 0.38528,-0.86 0.86,-0.86h3.44c0.47472,0 0.85828,0.38528 0.85828,0.86c0,0.47472 -0.38356,0.86 -0.85828,0.86z"></path><path d="M90.3,125.56c-0.00344,0 -0.00688,0 -0.01204,0l-1.71828,-0.02236c-0.473,-0.00688 -0.85484,-0.39044 -0.84796,-0.86c0.00516,-0.4644 0.38872,-0.83764 0.85828,-0.83764c0.00344,0 0.00688,0 0.01204,0l1.71828,0.02236c0.473,0.00688 0.85484,0.39044 0.84796,0.86c-0.00516,0.4644 -0.38872,0.83764 -0.85828,0.83764z"></path></g></g><path d="M0,172v-172h172v172z" fill="none" stroke="none" stroke-linejoin="miter"></path><g stroke="none" stroke-linejoin="miter"><path d="M87.35708,130.72h60.55948c1.89716,0 3.44,-1.53768 3.44,-3.42452c0.00516,-0.5504 0.00344,-1.55144 0.00172,-2.3736l-0.00172,-1.08016c0,-7.2842 -5.79296,-11.07508 -9.245,-12.68844c-1.88684,-0.88236 -6.39496,-3.053 -8.9096,-4.26388c-0.96492,-0.46612 -1.63056,-0.78604 -1.73204,-0.83248c-0.01204,0 -4.19164,-1.60132 -4.19164,-5.86692v-2.52324l0.72584,-0.51428c3.28348,-2.32888 5.6932,-5.45412 8.30244,-9.43248c0.8944,-1.36052 2.15,-4.46684 2.15,-7.11736v-0.90644l0.7482,-0.52288c0.77572,-0.53148 1.4018,-1.45168 1.75956,-2.59032c0.33884,-1.05264 1.76644,-8.25944 1.78708,-9.24156c-0.0344,-1.00448 -0.40764,-1.69764 -0.71552,-2.10184l-0.99588,-1.33128v-9.72832c0,-13.9406 -10.57628,-24.86432 -24.08,-24.86432c-13.50372,0 -24.08,10.92372 -24.08,24.86432v9.72488l-0.98728,1.31752c-0.3182,0.41452 -0.69144,1.11112 -0.72584,2.13452c0.01892,0.95976 1.4448,8.15796 1.78192,9.20372c0.36292,1.1524 0.989,2.07432 1.76644,2.60752l0.7482,0.51256v0.90644c0,2.66256 1.25732,5.76888 2.15,7.1294c2.60924,3.97836 5.01896,7.10532 8.30244,9.43248l0.72584,0.51428v2.52324c0,3.05988 -2.26696,5.08088 -4.38772,5.9512c-0.00344,0.00516 -7.8002,3.77884 -10.44384,5.0138c-3.45376,1.61336 -9.245,5.40424 -9.245,12.685c0,0 -0.00344,1.95392 -0.00344,2.3736" fill="#ccac94"></path><path d="M151.35828,123.84c0,-6.88 -5.117,-10.75688 -9.245,-12.685c-2.66084,-1.24356 -10.535,-5.05336 -10.535,-5.05336c0,0 -1.90748,-1.03888 -1.92984,-1.05264c-0.40248,-0.23908 -0.92536,-0.10492 -1.17476,0.28896c-0.01892,0.03096 -2.0124,3.02032 -11.5154,3.02032c-9.503,0 -11.49648,-2.98936 -11.50508,-3.0014c-0.23392,-0.41452 -0.7568,-0.56244 -1.17132,-0.3268c-0.01204,0.00688 -1.94016,1.07156 -1.94016,1.07156c0,0 -7.87244,3.8098 -10.535,5.05336c-4.128,1.92812 -9.245,5.805 -9.245,12.685c0,0.6708 -0.00688,2.61268 0,3.44c0,1.9006 1.5394,3.44 3.44,3.44h30.95484h0.00344h30.95484c1.89888,0 3.44,-1.5394 3.44,-3.44c0.01032,-0.82732 0.00344,-2.7692 0.00344,-3.44z" fill="#60be92"></path><path d="M89.44,138.68188l-0.00172,-1.08016c0,-7.2842 -5.79296,-11.07508 -9.245,-12.68844c-1.88684,-0.88236 -6.39496,-3.053 -8.9096,-4.26388c-0.96492,-0.46612 -1.63056,-0.78604 -1.73204,-0.83248c-0.01204,0 -4.19164,-1.60132 -4.19164,-5.86692v-2.52324l0.72584,-0.51428c3.28348,-2.32888 5.6932,-5.45412 8.30244,-9.43248c0.8944,-1.36052 2.15,-4.46684 2.15,-7.11736v-0.90644l0.7482,-0.52288c0.77572,-0.53148 1.4018,-1.45168 1.75956,-2.59032c0.33884,-1.05264 1.76644,-8.25944 1.78708,-9.24156c-0.0344,-1.00448 -0.40764,-1.69764 -0.71552,-2.10184l-0.9976,-1.33128v-9.72832c0,-13.9406 -10.57628,-24.86432 -24.08,-24.86432c-13.50372,0 -24.08,10.92372 -24.08,24.86432v9.72488l-0.98728,1.31752c-0.3182,0.41452 -0.69144,1.11112 -0.72584,2.13452c0.01892,0.95976 1.4448,8.15796 1.78192,9.20372c0.36292,1.1524 0.989,2.07432 1.76644,2.60752l0.7482,0.51256v0.90644c0,2.66256 1.25732,5.76888 2.15,7.1294c2.60924,3.97836 5.01896,7.10532 8.30244,9.43248l0.72584,0.51428v2.52324c0,3.05988 -2.26696,5.08088 -4.38772,5.9512c-0.00344,0.00516 -7.8002,3.77884 -10.44384,5.0138c-3.45376,1.61336 -9.245,5.40424 -9.245,12.685l-0.00516,1.0836c-0.00172,0.82044 -0.00344,1.81804 0.00172,2.33404c0,1.91952 1.54284,3.4658 3.44,3.4658h61.91312c1.89716,0 3.44,-1.53768 3.44,-3.42452c0.00688,-0.55212 0.00516,-1.55316 0.00516,-2.3736z" fill="#ead6c7"></path><path d="M89.44,137.59484c0,-6.88 -5.117,-10.75688 -9.245,-12.685c-2.66084,-1.24356 -10.535,-5.05336 -10.535,-5.05336c0,0 -1.90748,-1.03888 -1.92984,-1.05264c-0.40248,-0.23908 -0.92536,-0.10492 -1.17476,0.28896c-0.01892,0.03096 -2.0124,3.02032 -11.5154,3.02032c-9.503,0 -11.49648,-2.98936 -11.50508,-3.0014c-0.23392,-0.41452 -0.7568,-0.56244 -1.17132,-0.3268c-0.01204,0.00688 -1.94016,1.07156 -1.94016,1.07156c0,0 -7.87244,3.8098 -10.535,5.05336c-4.128,1.92812 -9.245,5.805 -9.245,12.685c0,0.6708 -0.00688,2.61268 0,3.44c0,1.9006 1.5394,3.44 3.44,3.44h30.95484h0.00344h30.95484c1.89888,0 3.44,-1.5394 3.44,-3.44c0.01032,-0.82732 0.00344,-2.7692 0.00344,-3.44z" fill="#f15b6c"></path><g fill="#1f212b"><path d="M85.99656,146.2h-61.91312c-2.84488,0 -5.16,-2.32716 -5.16,-5.1858c-0.00516,-0.37152 -0.00516,-1.03888 -0.00344,-1.70108l0.00344,-1.72344c0,-8.22848 6.41388,-12.4528 10.23744,-14.23816c2.61612,-1.2212 10.04996,-4.82116 10.39396,-4.988c0.03956,-0.02236 0.08256,-0.03956 0.12556,-0.05848c1.60648,-0.65704 3.32132,-2.14828 3.32132,-4.35848v-1.63228c-3.50192,-2.48196 -6.0286,-5.75168 -8.7462,-9.89344c-0.94084,-1.43104 -2.43208,-4.88996 -2.43208,-8.07196v0c-1.09564,-0.75164 -1.95908,-1.99692 -2.43552,-3.5088c-0.33196,-1.03888 -1.83524,-8.471 -1.86104,-9.6836c0.04128,-1.26248 0.4128,-2.34092 1.07672,-3.21296l0.6364,-0.8514v-9.15212c0,-14.90724 11.33308,-26.58432 25.8,-26.58432c14.46692,0 25.8,11.67708 25.8,26.58432v9.15556l0.6536,0.87204c0.45236,0.59512 1.00792,1.61852 1.0578,3.07192c-0.0258,1.3588 -1.51876,8.7376 -1.86792,9.82808c-0.47128,1.4964 -1.33472,2.73824 -2.42692,3.483v0.01032c0,3.17512 -1.49124,6.62888 -2.43208,8.06164c-2.7176,4.14176 -5.24428,7.41148 -8.7462,9.89172v1.634c0,2.95324 2.85348,4.16756 3.0702,4.25528c0.03612,0.01376 0.07224,0.02924 0.10836,0.04472c0.10836,0.04644 0.78776,0.37496 1.77332,0.8514c2.50604,1.20744 7.00556,3.37464 8.88896,4.25528c3.82356,1.78536 10.23744,6.00968 10.23744,14.24676l0.00344,1.075c0,0.00172 0,0.00344 0,0.00516v0.63296c0.00172,0.66564 0.00172,1.3416 -0.00344,1.75956c0,2.81736 -2.31512,5.1256 -5.16,5.1256zM40.97556,121.4664c-1.03372,0.5934 -3.59308,1.84212 -10.35956,5.00176c-3.08224,1.43964 -8.25256,4.79708 -8.25256,11.12668l-0.00344,1.72172c-0.00172,0.64328 -0.00172,1.29344 0.00344,1.677c0,0.98384 0.77056,1.76644 1.72,1.76644h61.91312c0.94944,0 1.72,-0.76368 1.72,-1.70452c0.00516,-0.43 0.00516,-1.09048 0.00344,-1.7372l-0.00344,-1.7114c0,-6.33648 -5.17032,-9.69564 -8.25256,-11.13528c-1.89372,-0.88408 -6.41044,-3.05988 -8.92852,-4.2742c-0.93052,-0.44892 -1.57724,-0.76024 -1.6942,-0.81528l0.01376,-0.03268c-1.63916,-0.63812 -5.21504,-2.96184 -5.21504,-7.40288v-2.52324c0,-0.55728 0.27004,-1.08188 0.72584,-1.40352l0.72584,-0.51428c3.05988,-2.16892 5.35436,-5.15484 7.85868,-8.97324c0.75336,-1.14724 1.86792,-3.90268 1.86792,-6.17308v-0.90644c0,-0.56244 0.2752,-1.08876 0.73616,-1.4104l0.74992,-0.52288c0.46612,-0.3182 0.86344,-0.93396 1.10424,-1.69592c0.32852,-1.02856 1.67012,-7.90512 1.70796,-8.76856c-0.01892,-0.44892 -0.20984,-0.81184 -0.36636,-1.01824l-1.0062,-1.33644c-0.2236,-0.29756 -0.344,-0.65876 -0.344,-1.032v-9.72832c0,-12.97912 -9.8212,-23.14432 -22.36,-23.14432c-12.5388,0 -22.36,10.1652 -22.36,23.14432v9.72488c0,0.37324 -0.1204,0.73444 -0.344,1.032l-0.98728,1.31752c-0.2408,0.3182 -0.36636,0.70348 -0.38356,1.16272c0.043,0.7654 1.37944,7.61444 1.70108,8.61892c0.24596,0.78088 0.64672,1.4018 1.1008,1.71484l0.7482,0.51084c0.46784,0.32164 0.74992,0.8514 0.74992,1.419v0.90644c0,2.279 1.11284,5.03788 1.86792,6.18512c2.50432,3.8184 4.7988,6.80432 7.85868,8.97496l0.72584,0.51256c0.4558,0.32336 0.72584,0.84624 0.72584,1.40352v2.52324c0,3.91128 -2.81908,6.46204 -5.45756,7.54392z"></path><path d="M61.05828,123.28788c-0.40076,0 -0.76024,-0.2838 -0.84108,-0.69316c-0.09288,-0.46612 0.20984,-0.91676 0.67768,-1.00964c4.53908,-0.89784 5.66396,-2.51464 5.67428,-2.53012c0.25972,-0.387 0.78604,-0.51084 1.18164,-0.258c0.39388,0.2494 0.5246,0.7568 0.28552,1.15756c-0.13588,0.22876 -1.48436,2.26352 -6.80776,3.31788c-0.05848,0.01032 -0.11524,0.01548 -0.17028,0.01548z"></path><path d="M55.04,123.81248c-10.51952,0 -12.78132,-3.48128 -13.00492,-3.8786c-0.23392,-0.4128 -0.086,-0.93912 0.3268,-1.17132c0.40592,-0.2322 0.92192,-0.09288 1.16272,0.31132c0.0602,0.09288 2.11388,3.0186 11.51368,3.0186l0.84452,-0.01892c0.52976,0.03784 0.86688,0.3698 0.87548,0.84452c0.0086,0.47472 -0.3698,0.86688 -0.84452,0.87548z"></path><path d="M88.58172,139.32h-48.16172c-0.47472,0 -0.86,-0.38528 -0.86,-0.86c0,-0.47472 0.38528,-0.86 0.86,-0.86h48.16172c0.47472,0 0.86,0.38528 0.86,0.86c0,0.47472 -0.38528,0.86 -0.86,0.86z"></path><path d="M55.04,115.21248c-4.4978,0 -11.76652,-4.6698 -12.0744,-4.8676l0.93396,-1.4448c0.07052,0.04472 7.1466,4.5924 11.14388,4.5924c3.99728,0 11.06992,-4.54768 11.14044,-4.5924l0.93396,1.4448c-0.30788,0.19952 -7.5766,4.8676 -12.07784,4.8676z"></path><path d="M35.26172,139.32h-3.44c-0.47472,0 -0.86,-0.38528 -0.86,-0.86c0,-0.47472 0.38528,-0.86 0.86,-0.86h3.44c0.47472,0 0.85828,0.38528 0.85828,0.86c0,0.47472 -0.38356,0.86 -0.85828,0.86z"></path><path d="M28.38172,139.32h-1.72c-0.47472,0 -0.86,-0.38528 -0.86,-0.86c0,-0.47472 0.38528,-0.86 0.86,-0.86h1.72c0.47472,0 0.85828,0.38528 0.85828,0.86c0,0.47472 -0.38356,0.86 -0.85828,0.86z"></path></g><g fill="#1f212b"><path d="M147.91656,132.44h-60.55948c-0.95116,0 -1.72,-0.76884 -1.72,-1.72c0,-0.95116 0.76884,-1.72 1.72,-1.72h60.55948c0.94944,0 1.72,-0.76368 1.72,-1.70452c0.00516,-0.43 0.00516,-1.09048 0.00344,-1.7372l-0.00344,-1.7114c0,-6.33648 -5.17032,-9.69564 -8.25256,-11.13528c-1.89372,-0.88408 -6.41044,-3.05988 -8.92852,-4.2742c-0.93052,-0.44892 -1.57724,-0.76024 -1.6942,-0.81528l0.01376,-0.03268c-1.63916,-0.63812 -5.21504,-2.96184 -5.21504,-7.40288v-2.52324c0,-0.55728 0.27004,-1.08188 0.72584,-1.40352l0.72584,-0.51428c3.05988,-2.16892 5.35436,-5.15484 7.85868,-8.97324c0.75336,-1.14724 1.86792,-3.90268 1.86792,-6.17308v-0.90644c0,-0.56244 0.2752,-1.08876 0.73616,-1.4104l0.74992,-0.52288c0.46612,-0.3182 0.86344,-0.93396 1.10424,-1.69592c0.32852,-1.02856 1.67012,-7.90512 1.70796,-8.76856c-0.01892,-0.44892 -0.20984,-0.81184 -0.36636,-1.01824l-1.0062,-1.33644c-0.2236,-0.29756 -0.344,-0.65876 -0.344,-1.032v-9.72832c0,-12.97912 -9.8212,-23.14432 -22.36,-23.14432c-12.5388,0 -22.36,10.1652 -22.36,23.14432v9.72488c0,0.37324 -0.1204,0.73444 -0.344,1.032l-0.98728,1.31752c-0.2408,0.3182 -0.36636,0.70348 -0.38356,1.16272c0.043,0.7654 1.37944,7.61444 1.70108,8.61892c0.24596,0.78088 0.64672,1.4018 1.1008,1.71484l0.7482,0.51084c0.46784,0.32164 0.74992,0.8514 0.74992,1.419v0.90644c0,2.279 1.11284,5.03788 1.86792,6.18512c2.50432,3.8184 4.7988,6.80432 7.85868,8.97496l0.72584,0.51256c0.4558,0.32336 0.72584,0.84624 0.72584,1.40352v2.52324c0,3.91128 -2.81908,6.46204 -5.45756,7.54392l-0.0086,-0.02236c-1.03372,0.5934 -3.59308,1.84212 -10.35956,5.00176c-3.08224,1.43964 -8.25256,4.79708 -8.25256,11.12668l-0.00516,2.37188c0,0.95116 -0.76884,1.72 -1.72,1.72c-0.95116,0 -1.72,-0.76884 -1.72,-1.72l0.00344,-2.37704c0,-8.2302 6.41388,-12.45452 10.23744,-14.23988c2.61612,-1.2212 10.04136,-4.816 10.39224,-4.988c0.04128,-0.02064 0.08428,-0.03956 0.12728,-0.05848c1.60648,-0.65704 3.32132,-2.14828 3.32132,-4.35848v-1.63228c-3.50192,-2.48196 -6.0286,-5.75168 -8.7462,-9.89344c-0.94084,-1.43104 -2.43208,-4.88996 -2.43208,-8.07196v0c-1.09564,-0.75164 -1.95908,-1.99692 -2.43552,-3.5088c-0.33196,-1.03888 -1.83524,-8.471 -1.86104,-9.6836c0.04128,-1.26248 0.4128,-2.34092 1.07672,-3.21296l0.6364,-0.8514v-9.15212c0,-14.90724 11.33308,-26.58432 25.8,-26.58432c14.46692,0 25.8,11.67708 25.8,26.58432v9.15556l0.6536,0.87204c0.45236,0.59512 1.00792,1.61852 1.0578,3.07192c-0.0258,1.3588 -1.51876,8.7376 -1.86792,9.82808c-0.47128,1.4964 -1.33472,2.73824 -2.42692,3.483v0.01032c0,3.17512 -1.49124,6.62888 -2.43208,8.06164c-2.7176,4.14176 -5.24428,7.41148 -8.7462,9.89172v1.634c0,2.95324 2.85348,4.16756 3.0702,4.25528c0.03612,0.01376 0.07224,0.02924 0.10836,0.04472c0.10836,0.04644 0.78776,0.37496 1.77332,0.8514c2.50604,1.20744 7.00556,3.37464 8.88896,4.25528c3.82356,1.78536 10.23744,6.00968 10.23744,14.24676l0.00344,1.71312c0.00172,0.66564 0.00172,1.3416 -0.00344,1.75956c0,2.81736 -2.31512,5.1256 -5.16,5.1256z"></path><path d="M122.97828,109.52788c-0.40076,0 -0.76024,-0.2838 -0.84108,-0.69316c-0.09288,-0.46612 0.20984,-0.91676 0.67768,-1.00964c4.53908,-0.89784 5.66396,-2.51464 5.67428,-2.53012c0.25972,-0.38872 0.78776,-0.50912 1.18164,-0.258c0.39388,0.2494 0.5246,0.7568 0.28552,1.15756c-0.13588,0.22876 -1.48436,2.26352 -6.80776,3.31788c-0.05848,0.01032 -0.11524,0.01548 -0.17028,0.01548z"></path><path d="M116.96,110.05248c-10.51952,0 -12.78132,-3.48128 -13.00492,-3.8786c-0.23392,-0.4128 -0.086,-0.93912 0.3268,-1.17132c0.40592,-0.2322 0.92192,-0.09116 1.16272,0.31132c0.0602,0.09288 2.11388,3.0186 11.51368,3.0186l0.84452,-0.01892c0.50224,0.06192 0.86688,0.3698 0.87548,0.84452c0.0086,0.47472 -0.3698,0.86688 -0.84452,0.87548z"></path><path d="M150.50172,125.56h-48.16172c-0.47472,0 -0.86,-0.38528 -0.86,-0.86c0,-0.47472 0.38528,-0.86 0.86,-0.86h48.16172c0.47472,0 0.86,0.38528 0.86,0.86c0,0.47472 -0.38528,0.86 -0.86,0.86z"></path><path d="M116.96,101.45248c-4.4978,0 -11.76652,-4.6698 -12.0744,-4.8676l0.93396,-1.4448c0.07052,0.04472 7.1466,4.5924 11.14388,4.5924c3.99728,0 11.06992,-4.54768 11.14044,-4.5924l0.93396,1.4448c-0.30788,0.19952 -7.5766,4.8676 -12.07784,4.8676z"></path><path d="M97.18172,125.56h-3.44c-0.47472,0 -0.86,-0.38528 -0.86,-0.86c0,-0.47472 0.38528,-0.86 0.86,-0.86h3.44c0.47472,0 0.85828,0.38528 0.85828,0.86c0,0.47472 -0.38356,0.86 -0.85828,0.86z"></path><path d="M90.3,125.56c-0.00344,0 -0.00688,0 -0.01204,0l-1.71828,-0.02236c-0.473,-0.00688 -0.85484,-0.39044 -0.84796,-0.86c0.00516,-0.4644 0.38872,-0.83764 0.85828,-0.83764c0.00344,0 0.00688,0 0.01204,0l1.71828,0.02236c0.473,0.00688 0.85484,0.39044 0.84796,0.86c-0.00516,0.4644 -0.38872,0.83764 -0.85828,0.83764z"></path></g></g><path d="" fill="none" stroke="none" stroke-linejoin="miter"></path><path d="" fill="none" stroke="none" stroke-linejoin="miter"></path><path d="" fill="none" stroke="none" stroke-linejoin="miter"></path></g></g></svg>